<svg fill="none" viewBox="0 285.802504 536.2945368171022 345.95000000000005" xmlns="http://www.w3.org/2000/svg" style="max-height: 500px" width="536.2945368171022" height="345.95000000000005">
  <g clip-path="url(#clip0_207_2)">
    <path fill="white" d="M347.225 623.982C372.024 623.982 405.152 622.419 436.396 622.419C442.929 569.529 446.449 529.03 461.108 472.71C430.023 471.335 363.42 471.769 353.946 474.23C352.049 524.861 350.166 574.697 347.225 623.982Z"/>
    <path fill="black" d="M347.225 624.648C347.037 624.648 346.863 624.575 346.747 624.445C346.617 624.315 346.559 624.127 346.573 623.953C349.572 573.568 351.542 520.78 353.295 474.215C353.295 473.926 353.512 473.68 353.787 473.593C363.492 471.06 430.993 470.713 461.137 472.044C461.34 472.044 461.528 472.146 461.644 472.319C461.76 472.479 461.803 472.681 461.745 472.884C449.172 521.214 444.769 558.066 439.685 600.765C438.844 607.785 437.975 615.051 437.063 622.52C437.019 622.853 436.744 623.099 436.411 623.099C419.898 623.099 403.066 623.533 386.799 623.953C372.473 624.315 358.944 624.662 347.24 624.662L347.225 624.648ZM354.598 474.765C352.86 520.997 350.905 573.322 347.935 623.331C359.451 623.331 372.719 622.983 386.755 622.621C402.849 622.202 419.478 621.782 435.817 621.767C436.715 614.501 437.555 607.438 438.366 600.606C443.436 558.109 447.825 521.373 460.254 473.347C430.255 472.073 365.651 472.392 354.584 474.78L354.598 474.765Z"/>
    <path fill="white" d="M224.97 625.733C226.621 593.846 223.478 559.991 210.702 530.709C203.373 547.051 194.71 562.611 184.976 577.476C181.847 572.135 179.066 566.49 176.285 560.859C175.575 559.412 174.866 557.964 174.141 556.517C170.245 548.585 166.334 540.653 162.785 532.562C167.551 513.296 172.809 494.161 178.921 475.301C179.762 472.71 180.631 470.076 182.094 467.774C185.107 462.983 190.249 460.016 195.304 457.498C209.225 450.535 224.072 445.426 239.021 442.531C240.411 440.331 242.454 438.536 244.815 437.422C246.872 445.296 251.782 452.171 257.46 457.99C260.068 460.667 263.53 463.345 267.064 462.969C276.726 459.654 282.245 449.667 290.356 443.443C293.181 441.272 296.628 439.491 300.467 439.839C308.81 441.445 317.154 443.052 325.497 444.659C339.273 447.308 353.526 450.159 364.984 458.25C367.476 460.016 369.851 462.043 372.227 464.851C385.423 494.769 395.505 525.99 403.587 557.675C407.513 573.076 410.989 589.229 407.542 605.122C405.456 609.812 401.994 613.778 398.068 617.092C395.678 619.119 393.057 620.942 390.102 621.97C386.741 623.142 383.12 623.215 379.556 623.287C372.01 623.432 364.463 623.577 356.916 623.721L224.927 625.719L224.97 625.733Z"/>
    <path fill="white" d="M224.898 575.724C215.975 581.326 209.08 590.011 205.502 599.911C205.024 601.257 204.589 602.705 204.966 604.08C205.343 605.455 206.864 606.598 208.486 606.034C208.167 607.554 209.167 609.233 210.659 609.681C212.151 610.13 213.903 609.262 214.468 607.814C214.874 608.712 216.047 609.059 217.018 608.842C217.988 608.625 218.799 608.002 219.582 607.38C221.61 605.773 223.637 604.181 225.665 602.574C228.287 600.505 230.924 598.42 233.922 596.958C235.559 596.162 237.297 595.54 238.76 594.469C241.788 592.269 243.279 588.1 242.208 584.525C241.237 581.326 238.557 578.967 235.849 576.998C234.443 575.97 232.923 574.986 231.184 574.784C228.649 574.48 226.187 575.927 224.883 575.753L224.898 575.724Z"/>
    <path fill="white" d="M200.968 625.733C218.003 625.487 235.037 625.227 252.072 624.981L251.855 613.618L197.014 614.907L200.968 625.733Z"/>
    <path fill="black" d="M200.968 626.399C200.693 626.399 200.447 626.226 200.345 625.965L196.391 615.138C196.318 614.936 196.347 614.718 196.463 614.545C196.579 614.371 196.782 614.255 196.999 614.255L251.84 612.967C252.014 612.967 252.188 613.025 252.318 613.155C252.449 613.271 252.521 613.445 252.521 613.618L252.738 624.981C252.738 625.154 252.68 625.328 252.55 625.458C252.434 625.589 252.26 625.661 252.087 625.661L200.983 626.414L200.968 626.399ZM197.941 615.543L201.417 625.068L251.391 624.329L251.203 614.299L197.941 615.543Z"/>
    <path fill="white" d="M242.193 405.535C244.438 420.501 245.38 435.67 245.003 450.811C244.974 452.07 244.945 453.402 245.51 454.531C246.089 455.688 247.219 456.456 248.335 457.136C255.983 461.768 265.413 463.895 274.075 461.623C282.723 459.35 290.269 452.258 291.066 442.662C287.416 430.358 281.303 413.221 276.581 393.478C265.978 398.167 254.882 401.742 242.178 405.549L242.193 405.535Z"/>
    <path fill="black" d="M266.803 463.186C260.517 463.186 253.955 461.304 248.002 457.686C246.872 457.005 245.611 456.166 244.931 454.82C244.279 453.532 244.322 452.084 244.351 450.796C244.713 435.728 243.772 420.545 241.541 405.636C241.498 405.317 241.686 404.999 242.005 404.898C255.664 400.787 266.166 397.342 276.32 392.855C276.494 392.768 276.711 392.783 276.885 392.855C277.059 392.942 277.189 393.101 277.233 393.289C280.579 407.243 284.678 420.139 287.981 430.488C289.342 434.787 290.646 438.84 291.703 442.43C291.732 442.502 291.732 442.589 291.732 442.676C290.965 451.824 283.939 459.683 274.249 462.231C271.859 462.853 269.353 463.172 266.803 463.172V463.186ZM242.932 405.998C245.119 420.791 246.032 435.873 245.669 450.81C245.64 451.997 245.611 453.213 246.104 454.212C246.625 455.24 247.697 455.963 248.668 456.542C256.736 461.435 265.934 463.041 273.887 460.957C281.477 458.974 289.487 452.547 290.371 442.705C289.313 439.159 288.039 435.149 286.692 430.908C283.447 420.718 279.42 408.097 276.103 394.389C266.253 398.688 256.026 402.061 242.903 406.012L242.932 405.998Z"/>
    <path fill="black" d="M376.703 623.2C359.958 623.2 335.26 619.828 311.114 616.513C297.512 614.646 284.664 612.895 273.8 611.823C273.438 611.794 273.162 611.462 273.206 611.1C273.249 610.738 273.568 610.477 273.93 610.506C284.823 611.577 297.686 613.343 311.302 615.196C345.632 619.9 384.539 625.212 394.099 619.104C402.095 613.995 407.571 606.309 408.049 599.549C408.599 591.791 407.078 573.944 405.586 566.779C399.372 537.02 377.326 472.088 369.228 462.983C361.479 454.27 349.586 450.724 339.056 448.075C323.441 444.167 307.42 441.214 291.428 439.332C289.038 446.888 283.794 457.295 272.293 465.068C270.033 466.602 267.325 465.285 264.949 464.127C264.5 463.91 264.051 463.693 263.631 463.504C263.414 463.403 262.66 463.273 261.878 463.143C257.866 462.448 249.493 460.986 245.438 454.82C243.265 451.534 242.671 447.351 243.67 442.401C229.084 444.804 215.279 448.929 201.489 454.994C195.608 457.584 189.003 460.971 184.715 466.428C180.848 471.335 179.023 477.617 177.4 483.161C168.188 514.773 159.656 547.022 152.037 579.053C151.95 579.415 151.602 579.632 151.24 579.546C150.878 579.459 150.661 579.097 150.748 578.749C158.367 546.703 166.913 514.425 176.126 482.799C177.777 477.139 179.646 470.727 183.673 465.632C188.148 459.944 194.928 456.47 200.953 453.807C215.149 447.554 229.359 443.356 244.409 440.953C244.626 440.91 244.844 440.997 245.003 441.156C245.148 441.315 245.22 441.547 245.162 441.764C243.975 446.772 244.438 450.912 246.538 454.111C250.276 459.785 258.257 461.189 262.096 461.854C263.153 462.043 263.805 462.158 264.167 462.318C264.602 462.506 265.065 462.737 265.529 462.954C267.687 463.997 269.932 465.082 271.554 463.982C282.998 456.253 288.082 445.817 290.327 438.435C290.414 438.131 290.718 437.928 291.037 437.972C307.261 439.853 323.527 442.835 339.389 446.801C350.122 449.493 362.232 453.112 370.228 462.115C378.962 471.943 401.197 539.234 406.89 566.519C408.396 573.756 409.932 591.805 409.381 599.65C408.874 606.815 403.153 614.892 394.824 620.219C391.507 622.346 385.119 623.2 376.732 623.2H376.703Z"/>
    <path fill="white" d="M264.877 473.969C260.676 494.784 256.751 515.685 253.086 536.643C252.463 540.19 251.84 543.823 252.159 547.441C252.608 552.536 254.853 557.067 257.026 561.38C259.691 566.663 262.357 571.947 265.949 577.186C270.222 567.474 274.046 557.443 277.305 547.253C278.406 524.022 270.83 501.442 270.222 478.181C270.179 476.749 270.164 475.229 269.585 473.984C269.005 472.739 267.658 471.943 264.877 473.94V473.969Z"/>
    <path fill="black" d="M265.949 577.867C265.731 577.867 265.529 577.765 265.398 577.577C261.777 572.294 259.068 566.909 256.432 561.699C254.331 557.544 251.956 552.826 251.492 547.514C251.159 543.75 251.826 539.915 252.419 536.542C256.07 515.656 260.039 494.566 264.21 473.854C264.239 473.694 264.341 473.55 264.471 473.448C266.007 472.334 267.339 471.914 268.411 472.189C269.164 472.392 269.773 472.927 270.164 473.752C270.787 475.084 270.83 476.618 270.859 478.109V478.21C271.134 488.531 272.815 498.923 274.437 508.954C276.465 521.46 278.565 534.385 277.942 547.326C277.942 547.383 277.942 547.441 277.913 547.499C274.698 557.544 270.874 567.633 266.543 577.49C266.441 577.707 266.238 577.867 265.992 577.881C265.978 577.881 265.949 577.881 265.934 577.881L265.949 577.867ZM265.471 474.36C261.313 494.986 257.359 515.974 253.738 536.759C253.158 540.059 252.506 543.794 252.825 547.383C253.274 552.45 255.592 557.038 257.634 561.091C260.082 565.94 262.603 570.933 265.847 575.826C269.961 566.388 273.597 556.748 276.668 547.152C277.262 534.385 275.19 521.547 273.177 509.142C271.54 499.068 269.86 488.632 269.584 478.225V478.124C269.541 476.777 269.512 475.373 269.005 474.288C268.788 473.825 268.498 473.55 268.121 473.448C267.672 473.333 266.876 473.405 265.5 474.346L265.471 474.36Z"/>
    <path fill="black" d="M273.858 611.838C273.582 611.838 273.322 611.664 273.22 611.375C273.104 611.027 273.307 610.651 273.655 610.535C279.014 608.827 281.173 604.514 280.897 596.148C280.289 578.272 277.58 575.898 276.436 575.695C276.103 575.638 275.871 575.334 275.886 575.001C275.9 574.668 276.175 574.393 276.523 574.378L279.739 574.234C307.188 573.018 338.259 571.657 357.466 569.298C354.222 559.151 351.122 549.888 348.109 540.914C344.98 531.563 341.75 521.909 338.375 511.342C338.259 510.995 338.462 510.619 338.809 510.517C339.157 510.402 339.534 510.604 339.635 510.952C342.996 521.518 346.226 531.172 349.355 540.508C352.44 549.699 355.612 559.224 358.958 569.674C359.016 569.862 358.987 570.065 358.886 570.239C358.784 570.398 358.611 570.514 358.408 570.543C339.215 572.974 307.637 574.364 279.782 575.594L278.58 575.652C280.043 577.563 281.752 582.571 282.201 596.133C282.404 602.155 281.665 609.392 274.046 611.824C273.973 611.838 273.916 611.852 273.843 611.852L273.858 611.838Z"/>
    <path fill="white" d="M26.1169 529.276L161.554 530.014L208.225 625.82L71.6006 626.616L26.1169 529.276Z"/>
    <path fill="black" d="M71.6006 627.268C71.3399 627.268 71.1081 627.123 71.0067 626.891L25.5231 529.551C25.4217 529.349 25.4362 529.102 25.5665 528.914C25.6824 528.726 25.8997 528.61 26.1315 528.61L161.568 529.349C161.815 529.349 162.046 529.493 162.162 529.725L208.848 625.531C208.949 625.733 208.935 625.98 208.819 626.168C208.703 626.356 208.486 626.486 208.254 626.486L71.6296 627.282L71.6006 627.268ZM27.1599 529.942L72.0207 625.951L207.168 625.169L161.134 530.68L27.1599 529.942Z"/>
    <path fill="white" d="M111.782 568.313C107.944 567.937 103.743 568.965 102.164 572.497C100.6 576.028 101.802 580.443 104.656 583.048C107.509 585.654 111.724 586.493 115.491 585.639C117.533 585.176 119.546 584.192 120.72 582.469C121.531 581.268 121.879 579.806 121.893 578.359C121.922 573.611 119.764 569.095 111.782 568.313Z"/>
    <path fill="black" d="M112.608 586.624C109.45 586.624 106.394 585.538 104.207 583.541C101.049 580.66 99.9336 575.898 101.556 572.236C103.048 568.892 106.886 567.184 111.84 567.662C120.749 568.531 122.574 573.959 122.545 578.359C122.545 580.067 122.096 581.615 121.27 582.846C119.822 584.974 117.417 585.885 115.65 586.291C114.651 586.522 113.622 586.624 112.623 586.624H112.608ZM110.334 568.907C108.045 568.907 104.25 569.443 102.773 572.757C101.368 575.927 102.353 580.038 105.105 582.556C107.683 584.901 111.609 585.842 115.346 584.988C117.519 584.496 119.228 583.468 120.169 582.093C121.024 580.834 121.212 579.357 121.227 578.344C121.27 572.743 118.069 569.587 111.71 568.965C111.377 568.936 110.899 568.892 110.334 568.892V568.907Z"/>
    <path fill="white" d="M270.193 463.331C268.353 461.999 265.862 462.101 263.877 462.926C260.951 464.141 258.474 465.864 257.924 468.976C257.779 469.772 259.329 473.116 260.126 474.317C261.067 475.75 263.457 478.341 265.514 478.514C267.282 478.659 268.918 477.617 270.236 476.43C272.627 474.302 274.582 471.133 273.814 468.035C273.351 466.168 272.018 464.648 270.193 463.316V463.331Z"/>
    <path fill="black" d="M265.847 479.195C265.717 479.195 265.587 479.195 265.456 479.18C262.921 478.978 260.343 475.866 259.561 474.679C258.923 473.723 257.055 470.032 257.272 468.86C257.938 465.068 261.212 463.302 263.631 462.303C266.152 461.261 268.744 461.435 270.599 462.781C272.742 464.344 274.017 466.009 274.466 467.876C275.176 470.8 273.771 474.172 270.685 476.922C268.991 478.442 267.397 479.18 265.862 479.18L265.847 479.195ZM266.861 462.969C265.876 462.969 264.906 463.2 264.124 463.533C260.705 464.952 258.996 466.66 258.576 469.092C258.532 469.656 259.822 472.667 260.676 473.955C261.661 475.446 263.892 477.718 265.572 477.863C266.861 477.979 268.237 477.342 269.802 475.952C270.816 475.041 274.06 471.813 273.177 468.209C272.8 466.66 271.699 465.241 269.816 463.866C268.933 463.229 267.904 462.983 266.89 462.983L266.861 462.969Z"/>
    <path fill="black" d="M229.649 611.968C229.069 611.968 228.447 611.751 227.751 611.172C226.332 609.971 227.302 607.669 227.621 606.917C228.128 605.701 228.982 604.702 229.823 603.79C232.618 600.765 235.964 598.174 239.774 596.032C237.645 595.612 235.269 596.553 233.516 597.537C230.214 599.375 227.273 601.908 224.434 604.355C223 605.599 221.508 606.873 219.973 608.06C219.248 608.625 218.466 609.189 217.525 609.464C216.366 609.797 215.193 609.551 214.454 608.827C213.802 608.19 213.614 607.307 213.57 606.685C213.425 604.485 214.758 602.531 215.772 601.257C221.841 593.6 228.229 589.33 235.313 588.216C235.675 588.158 236.008 588.404 236.066 588.766C236.124 589.128 235.877 589.461 235.515 589.518C228.78 590.575 222.652 594.686 216.8 602.068C215.917 603.182 214.772 604.847 214.888 606.598C214.932 607.148 215.106 607.611 215.381 607.886C215.772 608.263 216.467 608.393 217.148 608.19C217.858 607.988 218.495 607.525 219.147 607.018C220.653 605.845 222.131 604.586 223.551 603.356C226.448 600.866 229.446 598.29 232.85 596.394C235.269 595.048 238.76 593.774 241.686 595.352C241.903 595.467 242.034 595.699 242.034 595.945C242.034 596.191 241.889 596.408 241.672 596.524C237.456 598.71 233.777 601.46 230.764 604.702C230.011 605.513 229.258 606.41 228.823 607.438C228.229 608.856 228.142 609.797 228.577 610.173C229.576 611.013 230.141 610.651 231.242 609.826L231.315 609.768C235.617 606.164 239.962 603.197 244.554 600.722C246.075 599.897 248.045 599.071 249.783 599.925C251.898 600.953 257.967 603.284 268.629 602.618C272.54 602.372 276.61 602.907 280.724 604.21C281.071 604.326 281.26 604.688 281.158 605.035C281.042 605.382 280.68 605.571 280.333 605.469C276.378 604.21 272.467 603.703 268.73 603.935C257.75 604.63 251.42 602.183 249.218 601.112C248.031 600.533 246.51 601.17 245.191 601.894C240.672 604.326 236.399 607.235 232.14 610.81L232.039 610.883C231.387 611.375 230.59 611.983 229.62 611.983L229.649 611.968Z"/>
    <path fill="black" d="M211.064 610.897C210.774 610.897 210.499 610.854 210.239 610.767C208.689 610.275 208.008 608.552 207.906 607.105C207.646 603.602 209.514 600.345 210.948 598.203C215.772 590.966 220.755 586.406 225.752 584.641C226.1 584.525 226.476 584.698 226.592 585.046C226.708 585.393 226.534 585.77 226.187 585.885C221.465 587.55 216.699 591.95 212.035 598.927C210.717 600.91 208.978 603.906 209.21 606.989C209.282 607.959 209.688 609.204 210.615 609.493C211.093 609.652 211.716 609.522 212.281 609.146C212.831 608.784 213.266 608.277 213.787 607.64C214.019 607.351 214.439 607.307 214.714 607.539C215.004 607.771 215.048 608.19 214.816 608.465C214.251 609.16 213.715 609.783 213.02 610.246C212.397 610.651 211.716 610.868 211.064 610.868V610.897Z"/>
    <path fill="black" d="M206.95 606.974C206.168 606.974 205.372 606.728 204.691 606.251C202.605 604.789 204.995 596.871 207.66 592.471C213.049 583.584 219.915 577.186 227.534 573.944C231.445 571.324 248.697 576.578 255.968 578.967C257.808 579.575 260.227 580.269 262.719 580.342C269.092 580.544 277.305 580.646 279.463 580.313C279.826 580.255 280.159 580.501 280.217 580.863C280.275 581.225 280.028 581.558 279.666 581.615C276.769 582.064 265.007 581.731 262.69 581.659C260.024 581.572 257.489 580.848 255.563 580.211C243.772 576.332 230.764 573.235 228.258 575.044C228.215 575.073 228.171 575.102 228.128 575.116C220.842 578.199 213.99 584.597 208.805 593.137C205.821 598.044 204.618 604.557 205.458 605.151C206.241 605.701 207.298 605.788 208.008 605.368C208.327 605.18 208.732 605.281 208.92 605.599C209.109 605.918 209.007 606.323 208.689 606.511C208.182 606.815 207.573 606.974 206.965 606.974H206.95Z"/>
    <path fill="white" d="M244.974 436.698C248.552 445.469 256.244 457.628 264.066 462.318C259.807 466.038 254.476 471.885 245.524 478.543C242.381 462.781 239.108 455.283 237.21 442.951C239.267 441.431 242.425 438.232 244.974 436.698Z"/>
    <path fill="black" d="M245.525 479.195C245.438 479.195 245.365 479.18 245.293 479.151C245.075 479.065 244.931 478.891 244.887 478.659C243.424 471.306 241.889 465.661 240.556 460.668C238.963 454.748 237.587 449.638 236.573 443.038C236.529 442.792 236.631 442.546 236.833 442.401C237.601 441.836 238.543 441.011 239.528 440.143C241.164 438.71 243.019 437.089 244.655 436.119C244.815 436.018 245.018 436.003 245.206 436.061C245.394 436.119 245.539 436.264 245.611 436.438C249.378 445.658 257.04 457.31 264.428 461.739C264.616 461.855 264.732 462.043 264.746 462.245C264.761 462.462 264.688 462.665 264.529 462.81C263.283 463.895 261.965 465.155 260.43 466.602C256.794 470.047 252.289 474.346 245.945 479.065C245.829 479.151 245.684 479.195 245.554 479.195H245.525ZM237.92 443.226C238.919 449.566 240.266 454.559 241.816 460.32C243.106 465.097 244.554 470.467 245.959 477.371C251.797 472.956 256.041 468.918 259.488 465.647C260.763 464.431 261.893 463.36 262.965 462.405C255.78 457.657 248.48 446.671 244.67 437.682C243.294 438.623 241.758 439.955 240.382 441.156C239.499 441.923 238.659 442.662 237.92 443.24V443.226Z"/>
    <path fill="white" d="M269.396 462.274C273.858 467.89 278.319 473.506 283.679 479.267C290.168 466.602 296.73 453.546 299.685 439.636C296.904 438.348 290.863 434.353 288.082 433.079C288.893 436.032 290.545 438.71 290.139 439.636C289.893 440.23 276.335 455.761 269.382 462.289L269.396 462.274Z"/>
    <path fill="black" d="M283.679 479.919C283.49 479.919 283.316 479.846 283.201 479.701C277.812 473.912 273.278 468.194 268.889 462.68C268.672 462.405 268.701 462.014 268.962 461.782C275.915 455.269 288.763 440.505 289.574 439.332C289.647 438.971 289.125 437.697 288.748 436.756C288.314 435.699 287.821 434.498 287.474 433.224C287.401 432.978 287.488 432.703 287.691 432.544C287.894 432.37 288.169 432.341 288.401 432.443C289.82 433.094 292.08 434.455 294.267 435.757C296.426 437.045 298.642 438.377 300.003 438.999C300.279 439.13 300.438 439.434 300.38 439.738C297.309 454.169 290.4 467.644 284.316 479.542C284.215 479.73 284.026 479.861 283.823 479.89C283.794 479.89 283.766 479.89 283.737 479.89L283.679 479.919ZM270.294 462.332C274.379 467.471 278.594 472.768 283.519 478.109C289.4 466.645 295.919 453.72 298.932 439.984C297.512 439.274 295.499 438.073 293.543 436.901C292.022 435.989 290.458 435.062 289.197 434.368C289.429 435.033 289.69 435.67 289.936 436.249C290.632 437.943 291.081 439.072 290.747 439.868C290.4 440.693 277.218 455.688 270.28 462.318L270.294 462.332Z"/>
    <path fill="black" d="M0.666321 628.107C0.30419 628.107 0 627.818 0 627.441C0 627.079 0.289705 626.776 0.666321 626.776C176.068 626.066 353.947 623.721 529.334 619.842C529.71 619.842 530 620.117 530.014 620.494C530.014 620.855 529.739 621.159 529.363 621.174C353.976 625.068 176.097 627.398 0.680806 628.107H0.666321Z"/>
    <path fill="black" d="M223.478 577.447C223.145 577.447 222.87 577.201 222.826 576.868C219.871 554.1 211.542 530.26 199.983 511.444C199.795 511.125 199.896 510.72 200.2 510.532C200.504 510.344 200.924 510.445 201.113 510.749C212.773 529.71 221.16 553.752 224.144 576.694C224.188 577.056 223.942 577.389 223.579 577.432C223.55 577.432 223.521 577.432 223.492 577.432L223.478 577.447Z"/>
    <path fill="black" d="M184.904 578.605C184.774 578.605 184.658 578.576 184.542 578.504C184.238 578.301 184.151 577.896 184.339 577.592C192.755 564.565 203.271 547.427 210.007 530.347C210.137 530 210.528 529.841 210.862 529.971C211.209 530.101 211.369 530.492 211.238 530.825C204.459 548.006 193.899 565.216 185.454 578.301C185.324 578.504 185.121 578.605 184.904 578.605Z"/>
    <path fill="black" d="M224.97 614.183C224.608 614.183 224.304 613.879 224.318 613.517L224.42 602.951C224.42 602.589 224.724 602.299 225.086 602.299C225.448 602.299 225.752 602.603 225.738 602.965L225.637 613.531C225.637 613.893 225.332 614.183 224.97 614.183Z"/>
    <path fill="black" d="M289.98 370.811C289.98 370.811 289.878 370.811 289.82 370.796C289.458 370.709 289.241 370.348 289.328 370C289.994 367.264 290.284 365.788 290.82 363.096C290.892 362.734 291.24 362.502 291.602 362.575C291.964 362.647 292.196 362.995 292.124 363.356C291.588 366.049 291.283 367.539 290.617 370.304C290.545 370.608 290.269 370.811 289.98 370.811Z"/>
    <path fill="black" d="M357.8 570.586C357.452 570.586 357.148 570.311 357.133 569.949C357.119 569.587 357.409 569.269 357.771 569.254C362.406 569.066 367.114 568.936 371.763 568.878C372.126 568.878 372.415 569.168 372.43 569.529C372.43 569.891 372.14 570.195 371.778 570.195C367.143 570.253 362.449 570.383 357.829 570.572C357.829 570.572 357.814 570.572 357.8 570.572V570.586Z"/>
    <path fill="black" d="M398.706 514.86C398.358 514.86 398.069 514.585 398.04 514.237C398.011 513.875 398.3 513.557 398.662 513.542C412.684 512.688 426.909 512.428 440.945 512.775C441.307 512.775 441.597 513.094 441.597 513.455C441.597 513.817 441.278 514.107 440.916 514.107C426.923 513.759 412.728 514.006 398.749 514.86C398.749 514.86 398.72 514.86 398.706 514.86Z"/>
    <path fill="black" d="M404.167 527.756C403.805 527.756 403.515 527.467 403.5 527.105C403.5 526.743 403.79 526.439 404.152 526.425L434.267 525.846C434.629 525.846 434.933 526.135 434.948 526.497C434.948 526.859 434.658 527.163 434.296 527.177L404.181 527.756H404.167Z"/>
    <path fill="black" d="M419.811 583.526C419.463 583.526 419.159 583.251 419.145 582.889C419.13 582.527 419.405 582.209 419.782 582.194L435.296 581.529C435.658 581.5 435.976 581.804 435.991 582.166C436.005 582.527 435.73 582.846 435.354 582.86L419.84 583.526C419.84 583.526 419.825 583.526 419.811 583.526Z"/>
    <path fill="black" d="M303.495 460.407C303.495 460.407 303.393 460.407 303.35 460.393C302.988 460.306 302.77 459.958 302.843 459.597C303.697 455.775 304.407 451.882 304.958 448.003C305.016 447.641 305.349 447.395 305.711 447.438C306.073 447.496 306.319 447.829 306.276 448.191C305.725 452.099 305.016 456.036 304.146 459.886C304.074 460.19 303.799 460.407 303.495 460.407Z"/>
    <path fill="black" d="M311.693 454.661C311.693 454.661 311.65 454.661 311.635 454.661C311.273 454.632 310.998 454.299 311.041 453.937L311.664 447.134C311.693 446.772 312.026 446.497 312.388 446.541C312.75 446.57 313.026 446.903 312.982 447.264L312.374 454.067C312.345 454.415 312.055 454.675 311.707 454.675L311.693 454.661Z"/>
    <path fill="black" d="M272.945 581.818C272.945 581.818 272.902 581.818 272.873 581.818C272.511 581.775 272.25 581.456 272.279 581.094C272.366 580.255 272.511 579.401 272.713 578.576C272.902 577.794 273.206 576.781 273.814 575.942C274.51 575.001 275.509 574.436 276.523 574.407C276.523 574.407 276.523 574.407 276.537 574.407C276.9 574.407 277.189 574.697 277.204 575.059C277.204 575.42 276.929 575.724 276.552 575.739C275.958 575.753 275.335 576.13 274.886 576.738C274.408 577.389 274.176 578.2 274.003 578.894C273.814 579.661 273.684 580.458 273.597 581.239C273.568 581.587 273.278 581.833 272.945 581.833V581.818Z"/>
    <path fill="black" d="M273.669 611.635C273.104 611.635 272.525 611.331 272.119 610.839C271.801 610.434 271.627 609.971 271.482 609.522C270.888 607.626 270.729 605.571 271.004 603.602C271.047 603.24 271.395 602.994 271.757 603.038C272.119 603.081 272.366 603.428 272.322 603.79C272.076 605.571 272.221 607.423 272.757 609.131C272.858 609.45 272.974 609.783 273.162 610.014C273.307 610.202 273.495 610.304 273.669 610.318C274.031 610.318 274.336 610.608 274.35 610.97C274.35 611.331 274.06 611.635 273.698 611.65H273.669V611.635Z"/>
    <path fill="black" d="M296.31 323.899C296.599 335.652 296.541 346.233 295.296 361.865C294.702 369.291 292.891 377.729 290.284 384.88C289.053 388.238 287.937 389.96 284.678 392.262C283.939 389.207 280.448 388.252 279.405 385.285C278.116 381.623 279.956 377.874 277.088 374.936C271.627 369.349 267.441 362.893 264.79 355.974C262.617 350.3 261.473 344.12 263.269 338.2C265.08 332.28 270.294 326.693 277.378 324.941C282.766 323.595 291.399 321.236 296.295 323.914L296.31 323.899Z"/>
    <path fill="black" d="M284.866 392.884C284.736 392.927 284.591 392.913 284.446 392.869C284.244 392.797 284.084 392.623 284.041 392.406C283.708 391.017 282.679 390.09 281.593 389.106C280.492 388.107 279.348 387.08 278.797 385.488C278.247 383.924 278.232 382.39 278.218 380.914C278.189 378.786 278.174 376.962 276.639 375.384C271.091 369.696 266.905 363.24 264.196 356.206C261.545 349.287 261.038 343.338 262.661 337.997C264.689 331.368 270.41 325.983 277.233 324.29L278.073 324.073C283.519 322.712 291.747 320.642 296.628 323.32C296.831 323.436 296.962 323.653 296.976 323.885C297.266 335.71 297.208 346.19 295.962 361.909C295.354 369.508 293.514 377.961 290.921 385.097C289.705 388.426 288.575 390.336 285.069 392.783C285.011 392.826 284.939 392.855 284.866 392.884ZM276.885 325.752C270.801 327.518 265.746 332.41 263.921 338.388C262.385 343.425 262.878 349.099 265.413 355.728C268.049 362.604 272.134 368.9 277.566 374.458C279.478 376.412 279.492 378.699 279.521 380.899C279.536 382.274 279.55 383.693 280.028 385.053C280.477 386.327 281.448 387.195 282.462 388.136C283.432 389.019 284.432 389.917 284.997 391.205C287.662 389.193 288.589 387.543 289.647 384.662C292.211 377.642 294.021 369.32 294.615 361.822C295.846 346.334 295.919 335.942 295.629 324.319C291.153 322.162 283.49 324.087 278.377 325.361L277.522 325.578C277.291 325.636 277.073 325.694 276.856 325.752H276.885Z"/>
    <path fill="white" d="M213.034 357.132C214.801 367.279 213.99 377.729 215.163 387.963C216.351 398.196 219.9 408.705 228.693 415.565C236.428 421.601 247.886 424.091 258.445 422.021C269.02 419.966 278.42 413.409 282.911 404.985C287.126 397.067 286.127 381.03 285.938 372.953C290.776 373.112 295.861 370.999 298.338 367.395C300.815 363.791 300.192 358.811 296.541 356.235C292.906 353.658 288.661 353.702 284.432 358.71C283.968 352.11 282.056 345.828 281.202 342.933C278.869 335.102 277.276 323.233 271.294 320.512C267.904 318.963 261.038 318.08 257.2 317.559C250.551 316.662 242.091 321.829 235.341 322.625C228.591 323.421 222.087 327.474 217.061 331.484C211.05 336.289 211.716 349.533 213.049 357.118L213.034 357.132Z"/>
    <path fill="black" d="M261.951 421.862C260.85 422.18 259.72 422.455 258.59 422.672C247.813 424.771 236.211 422.252 228.302 416.086C220.61 410.094 215.975 400.657 214.526 388.035C214.005 383.548 213.874 378.96 213.744 374.53C213.57 368.827 213.396 362.936 212.397 357.248C211.818 353.89 209.268 336.868 216.656 330.977C223.29 325.679 229.562 322.654 235.284 321.974C237.978 321.655 240.933 320.628 244.062 319.542C248.567 317.979 253.231 316.358 257.316 316.908L257.736 316.966C261.661 317.487 268.237 318.37 271.598 319.904C276.624 322.206 278.667 330.326 280.477 337.49C280.956 339.372 281.39 341.138 281.868 342.745L281.926 342.933C282.752 345.683 284.389 351.183 284.997 357.147C288.763 353.398 292.964 352.862 296.962 355.685C300.829 358.42 301.684 363.718 298.917 367.756C296.513 371.259 291.66 373.561 286.663 373.618C286.677 374.255 286.706 374.936 286.721 375.659C286.996 384.576 287.401 398.037 283.534 405.288C279.435 412.989 271.352 419.14 261.98 421.847L261.951 421.862ZM213.686 357.016C214.7 362.792 214.874 368.741 215.048 374.487C215.178 378.902 215.323 383.447 215.83 387.89C217.249 400.136 221.711 409.283 229.113 415.044C236.732 420.979 247.929 423.41 258.33 421.384C268.73 419.358 277.928 412.96 282.332 404.681C286.025 397.733 285.605 383.953 285.359 375.703C285.33 374.719 285.301 373.807 285.287 372.967C285.287 372.779 285.359 372.605 285.489 372.475C285.62 372.345 285.794 372.272 285.982 372.287C290.791 372.446 295.542 370.318 297.802 367.018C300.148 363.588 299.439 359.086 296.179 356.77C292.355 354.064 288.575 354.86 284.968 359.13C284.794 359.332 284.519 359.419 284.258 359.332C283.997 359.245 283.824 359.014 283.809 358.753C283.36 352.37 281.535 346.262 280.666 343.324L280.608 343.135C280.115 341.5 279.666 339.705 279.188 337.823C277.465 330.948 275.495 323.161 271.048 321.12C267.861 319.672 261.415 318.804 257.562 318.283L257.142 318.225C253.376 317.718 248.871 319.282 244.511 320.801C241.454 321.858 238.282 322.958 235.457 323.291C229.982 323.942 223.942 326.866 217.51 332.019C212.238 336.231 212.18 348.129 213.73 357.031L213.686 357.016Z"/>
    <path fill="black" d="M242.077 336.593C241.889 341.254 236.037 348.824 231.735 350.054C227.433 351.285 225.434 349.548 222.928 345.654C219.654 349.794 217.365 353.818 213.672 356.032C208.022 359.419 199.853 356.944 196.709 350.923C193.566 344.902 196.058 336.448 201.881 333.394C197.912 335.117 193.03 331.657 192.161 327.243C191.292 322.814 193.682 318.254 197.158 315.62C200.635 312.986 204.995 311.987 209.181 310.597C206.806 306.573 207.921 301.044 211.006 297.643C214.092 294.256 218.698 292.75 223.188 292.504C226.143 292.345 229.2 292.692 231.822 294.169C234.429 295.645 236.529 298.395 236.978 301.652C239.962 296.123 245.583 291.766 251.681 292.128C257.779 292.49 263.457 298.859 264.775 303.707C267.006 299.698 270.207 296.166 274.64 295.631C283.418 294.56 286.706 301.609 284.475 311.813C288.705 308.701 295.962 309.468 299.352 315.823C301.887 320.541 301.467 328.849 298.671 333.394C295.875 337.939 284.171 343.469 274.466 338.837C269.078 336.26 265.978 332.005 263.805 327.865C262.038 332.7 260.705 336.043 254.694 339.271C250.305 341.63 244.438 340.762 242.092 336.593H242.077Z"/>
    <path fill="black" d="M288.937 340.328C284.403 341.645 279.072 341.789 274.162 339.445C268.846 336.912 265.789 332.772 263.906 329.472C262.385 333.496 260.72 336.781 254.998 339.864C250.652 342.195 245.322 341.428 242.483 338.287C241.266 343.121 236.008 349.519 231.952 350.691C231.952 350.691 231.937 350.691 231.923 350.691C227.592 351.922 225.303 350.315 222.884 346.798C222.29 347.579 221.711 348.346 221.16 349.099C218.973 352.081 216.902 354.889 214.005 356.611C211.224 358.276 207.675 358.681 204.285 357.711C200.707 356.698 197.738 354.339 196.115 351.227C193.247 345.726 194.768 338.489 199.172 334.494C198.201 334.422 197.216 334.133 196.26 333.626C193.841 332.367 192.031 329.964 191.509 327.373C190.524 322.379 193.436 317.603 196.767 315.099C199.693 312.884 203.228 311.784 206.661 310.713C207.182 310.554 207.718 310.38 208.24 310.221C206.356 306.24 207.269 300.798 210.528 297.208C213.396 294.038 217.887 292.142 223.159 291.867C226.723 291.679 229.75 292.273 232.155 293.619C234.617 295.008 236.442 297.281 237.253 299.901C240.773 294.429 246.292 291.158 251.71 291.491C257.417 291.824 262.907 297.107 264.935 302.144C267.629 297.845 270.845 295.442 274.553 294.994C278.189 294.545 281.144 295.442 283.114 297.585C285.576 300.277 286.373 304.836 285.417 310.481C287.517 309.425 290.067 309.121 292.471 309.656C295.643 310.38 298.294 312.45 299.931 315.518C302.538 320.382 302.205 328.893 299.236 333.742C297.744 336.173 293.804 338.909 288.951 340.313L288.937 340.328ZM263.617 327.228C263.617 327.228 263.703 327.214 263.761 327.199C264.022 327.185 264.268 327.315 264.399 327.547C266.123 330.832 269.078 335.522 274.756 338.229C283.925 342.6 295.383 337.476 298.106 333.032C300.829 328.603 301.133 320.556 298.772 316.126C297.324 313.405 294.977 311.567 292.181 310.945C289.603 310.366 286.865 310.887 284.866 312.349C284.649 312.508 284.345 312.522 284.113 312.378C283.881 312.233 283.766 311.943 283.823 311.683C285.113 305.763 284.504 301.073 282.129 298.468C280.448 296.629 277.957 295.891 274.712 296.296C271.105 296.745 267.962 299.351 265.355 304.04C265.224 304.272 264.964 304.402 264.703 304.373C264.442 304.344 264.21 304.156 264.138 303.896C262.95 299.51 257.605 293.17 251.637 292.808C246.263 292.49 240.744 296.094 237.558 301.999C237.427 302.245 237.138 302.39 236.862 302.332C236.587 302.274 236.37 302.057 236.326 301.768C235.921 298.902 234.081 296.224 231.503 294.762C229.33 293.532 226.549 292.996 223.232 293.184C218.307 293.445 214.15 295.196 211.513 298.106C208.428 301.507 207.675 306.747 209.775 310.279C209.876 310.452 209.891 310.655 209.818 310.843C209.746 311.031 209.601 311.176 209.413 311.234C208.631 311.495 207.848 311.741 207.066 311.972C203.604 313.058 200.316 314.071 197.578 316.141C194.58 318.399 191.958 322.669 192.827 327.112C193.262 329.327 194.826 331.368 196.883 332.453C198.505 333.293 200.186 333.423 201.634 332.786C201.953 332.642 202.344 332.786 202.503 333.105C202.663 333.423 202.532 333.814 202.214 333.973C196.738 336.839 194.363 344.916 197.318 350.604C198.766 353.398 201.446 355.511 204.676 356.423C207.733 357.292 210.89 356.93 213.353 355.453C216.018 353.861 217.916 351.27 220.117 348.288C220.856 347.29 221.609 346.262 222.435 345.234C222.565 345.061 222.768 344.974 222.986 344.988C223.203 344.988 223.391 345.119 223.507 345.292C225.926 349.041 227.664 350.518 231.575 349.403C231.575 349.403 231.575 349.403 231.59 349.403C235.646 348.231 241.237 340.921 241.425 336.564C241.425 336.275 241.628 336.029 241.932 335.942C242.222 335.869 242.512 336 242.671 336.26C244.931 340.255 250.551 340.747 254.389 338.677C260.314 335.493 261.516 332.193 263.182 327.634C263.254 327.431 263.414 327.286 263.617 327.228Z"/>
    <path fill="black" d="M225.057 370.159C224.695 368.943 225.448 367.641 226.737 367.25C228.026 366.874 229.374 367.554 229.736 368.77C230.098 369.986 229.345 371.288 228.055 371.679C226.766 372.055 225.419 371.375 225.057 370.159Z"/>
    <path fill="black" d="M258.808 366.005C258.445 364.789 259.199 363.487 260.488 363.096C261.777 362.72 263.124 363.4 263.486 364.616C263.848 365.832 263.095 367.134 261.806 367.525C260.517 367.901 259.17 367.221 258.808 366.005Z"/>
    <path fill="black" d="M257.113 406.548C255.693 406.953 254.201 407.127 252.709 406.996C252.347 406.968 252.072 406.649 252.101 406.287C252.13 405.925 252.449 405.65 252.811 405.679C256.997 406.027 261.227 403.827 263.356 400.222C263.544 399.904 263.95 399.803 264.269 399.991C264.587 400.179 264.689 400.584 264.5 400.903C262.878 403.653 260.155 405.679 257.113 406.562V406.548Z"/>
    <path fill="black" d="M249.044 395.026C247.176 395.562 245.061 395.634 242.729 395.243C241.758 395.084 240.643 394.809 239.745 394.085C238.601 393.159 237.978 391.61 238.036 389.815C238.079 388.542 238.427 387.326 238.774 386.139L238.934 385.589C240.773 379.148 241.107 372.258 239.904 365.658C239.832 365.296 240.078 364.948 240.44 364.891C240.802 364.818 241.15 365.064 241.208 365.426C242.454 372.215 242.106 379.307 240.223 385.951L240.064 386.501C239.73 387.644 239.412 388.73 239.383 389.844C239.339 391.205 239.788 392.392 240.6 393.043C241.251 393.579 242.164 393.781 242.961 393.926C245.278 394.317 247.35 394.201 249.117 393.608C251.13 392.913 252.782 391.495 253.535 389.801C253.68 389.468 254.071 389.309 254.404 389.468C254.737 389.613 254.896 390.004 254.737 390.337C253.825 392.392 251.927 394.042 249.537 394.867C249.378 394.925 249.218 394.968 249.059 395.012L249.044 395.026Z"/>
    <path fill="black" d="M288.618 331.078C288.357 331.151 288.068 331.064 287.894 330.832C287.677 330.543 287.749 330.123 288.039 329.906C291.559 327.373 293.21 322.524 291.993 318.37C291.892 318.023 292.095 317.646 292.442 317.545C292.79 317.444 293.152 317.646 293.268 317.994C294.644 322.669 292.775 328.126 288.821 330.977C288.763 331.021 288.691 331.05 288.618 331.078Z"/>
    <g opacity="0.13">
      <path fill="black" d="M263.182 328.893C262.747 329.674 262.284 330.427 261.806 331.18C261.777 331.339 261.705 331.57 261.56 332.12C261.313 332.873 260.98 333.611 260.647 334.335C259.242 336.796 257.75 338.46 256.215 339.748C255.795 339.256 255.041 339.025 254.433 339.43C254.332 339.488 254.23 339.531 254.129 339.575C254.085 339.589 254.027 339.618 253.955 339.633C252.738 339.951 251.565 340.443 250.305 340.602C250.435 340.588 250.58 340.559 250.71 340.545C250.319 340.689 248.393 340.704 246.843 340.545C246.756 340.545 246.582 340.516 246.423 340.487C246.104 340.4 245.756 340.443 245.452 340.559C245.365 340.545 245.293 340.53 245.206 340.516C245.191 340.487 245.162 340.458 245.119 340.4C245.119 340.371 245.09 340.342 245.076 340.327C245.076 340.183 245.076 340.038 245.047 339.908C244.873 338.866 243.612 338.142 242.642 338.562C241.628 338.866 241.237 340.024 241.367 341.008C241.237 341.37 241.092 341.731 240.933 342.079C240.208 343.382 239.354 344.626 238.499 345.857C238.34 346.088 237.862 346.696 237.789 346.812C237.746 346.855 237.717 346.913 237.674 346.957C236.674 348.129 234.603 350.141 232.502 350.981C232.502 350.981 232.488 350.981 232.473 350.981C231.966 351.125 231.445 351.227 230.923 351.27C230.779 351.27 230.605 351.27 230.445 351.256C230.373 351.241 230.286 351.227 230.214 351.198C230.025 351.14 229.837 351.067 229.663 350.981C229.62 350.952 229.576 350.937 229.518 350.894C229.446 350.85 229.388 350.807 229.33 350.763C228.751 350.807 228.142 350.72 227.606 350.488C227.027 350.387 226.505 350.156 226.042 349.765C225.781 349.562 225.578 349.302 225.376 349.056C225.347 349.027 225.318 348.983 225.289 348.94C225.289 348.94 225.202 348.867 225.187 348.853C225.086 348.766 224.999 348.665 224.898 348.578C224.26 347.955 223.695 347.275 223.232 346.523C223.217 346.523 223.203 346.523 223.188 346.523C222.551 346.667 221.957 347.145 221.769 347.782C221.696 348.071 221.609 348.346 221.494 348.621C221.465 348.694 221.421 348.781 221.392 348.853C221.392 348.882 221.363 348.925 221.32 349.012C221.32 349.041 221.305 349.056 221.291 349.084C220.856 349.663 220.552 350.329 220.088 350.879C219.915 351.096 219.726 351.314 219.538 351.531C219.48 351.589 219.422 351.646 219.364 351.719C219.335 351.748 219.321 351.777 219.292 351.806C218.336 352.877 217.264 353.818 216.149 354.701C215.395 355.395 214.28 355.815 213.802 356.756C212.759 358.695 215.337 360.678 216.989 359.202C219.364 357.451 221.58 355.439 223.203 352.964C223.478 352.558 223.724 352.139 223.956 351.719C225.332 353.152 226.911 354.411 228.751 355.164C231.503 356.105 234.53 355.048 236.775 353.369C238.963 351.748 239.687 350.706 240.802 349.345C241.874 347.912 242.845 346.407 243.627 344.8C244.453 345.596 245.423 346.247 246.481 346.667C247.944 347.203 249.609 347.333 251.116 346.884C251.043 346.913 250.985 346.928 250.928 346.957C251.072 346.928 251.232 346.899 251.377 346.855C253.303 346.349 255.027 345.307 256.635 344.178C258.981 342.513 261.096 340.458 262.646 338.012C263.588 336.463 264.399 334.798 264.761 333.003C264.819 332.555 264.79 332.946 264.717 333.192C264.906 332.526 265.051 331.845 265.181 331.165C265.253 330.774 265.369 330.34 265.181 329.964C264.891 329.037 263.979 328.733 263.197 328.936L263.182 328.893Z"/>
    </g>
    <g opacity="0.13">
      <path fill="black" d="M296.064 337.1C295.18 336.086 293.992 336.781 293.036 337.273C291.602 337.983 290.081 338.475 288.633 339.155C287.575 339.662 286.532 340.212 285.417 340.602C285.417 340.602 285.431 340.602 285.446 340.602C285.098 340.733 284.838 340.82 285.446 340.602C284.867 340.834 284.215 340.95 283.65 341.225C283.447 340.979 283.201 340.776 282.868 340.675C281.405 340.11 279.913 341.818 280.666 343.193C281.231 344.25 281.81 345.292 282.216 346.407C282.621 348.086 283.389 350.735 285.649 349.736C286.098 349.519 286.373 349.128 286.59 348.694C286.561 348.838 287.43 347.623 287.662 347.391C288.604 346.218 290.472 344.337 292.312 342.47C293.282 341.529 294.282 340.631 295.325 339.792C295.412 339.734 295.499 339.676 295.586 339.618C295.658 339.575 295.774 339.502 295.875 339.416C296.556 338.866 296.657 337.794 296.064 337.143V337.1Z"/>
    </g>
    <g opacity="0.13">
      <path fill="black" d="M287.836 434.165C287.257 432.471 286.677 430.763 286.185 429.041C285.113 425.422 284.157 421.76 283.331 418.084C282.303 415.392 281.332 412.67 280.55 409.891C280.55 409.848 280.535 409.805 280.521 409.761C280.492 409.602 280.521 409.53 280.521 409.515C280.347 409.341 277.247 412.338 277.247 412.338C277.247 412.338 275.089 414.407 271.728 416.969C268.223 419.618 264.732 420.675 262.327 421.399C256.794 423.063 252.202 422.962 248.958 422.846C246.988 422.788 245.365 422.614 244.221 422.47C244.38 422.817 244.656 423.309 245.105 423.845C246.611 425.611 248.755 425.857 250.638 426.465C252.782 427.174 254.926 427.883 257.084 428.592C261.429 430.025 265.789 431.444 270.149 432.819C272.192 433.456 274.22 434.078 276.277 434.7C278.247 435.294 280.289 435.728 282.346 435.858C282.158 435.858 281.969 435.844 281.781 435.829C281.955 435.858 282.129 435.887 282.317 435.902C282.491 435.902 282.781 435.945 283.027 435.989C283.577 436.235 284.142 436.466 284.693 436.683C285.2 436.814 285.75 437.074 286.301 437.147C286.692 437.552 287.358 437.61 287.836 437.335C289.053 436.597 288.126 435.207 287.836 434.194V434.165Z"/>
    </g>
    <g opacity="0.13">
      <path fill="black" d="M267.267 478.79C266.659 478.254 266.021 477.69 265.312 477.603C263.284 477.255 262.313 480.121 264.095 481.134C265.427 482.075 266.152 482.596 266.528 483.002C267.006 483.494 267.426 484.16 268.194 484.174C269.382 484.406 270.425 483.219 270.265 482.075C270.381 480.425 270.15 480.194 270.439 479.296C270.903 476.98 267.629 476.532 267.267 478.804V478.79Z"/>
    </g>
    <g opacity="0.13">
      <path fill="black" d="M282.925 477.907C282.447 477.125 281.477 476.705 280.854 476.025C279.377 474.693 277.74 472.927 277.334 472.262C276.986 471.784 276.61 471.321 276.306 470.829C276.03 470.293 275.654 469.757 275.031 469.613C273.64 469.178 272.366 470.843 273.133 472.073C273.307 472.348 273.51 472.623 273.698 472.898C273.553 472.826 273.409 472.783 273.235 472.783C271.424 472.479 270.57 475.026 272.148 475.924C274.046 476.966 275.886 478.109 277.711 479.253C279.478 480.237 280.854 480.888 281.796 481.12C283.635 481.438 284.519 478.847 282.925 477.907Z"/>
    </g>
    <g opacity="0.13">
      <path fill="black" d="M259.908 473.086C259.474 472.276 259.083 471.436 258.576 470.655C258.329 470.25 258.199 469.728 257.779 469.482C256.78 468.657 255.49 469.28 255.099 470.264C255.041 470.264 254.983 470.264 254.925 470.293C254.216 470.481 253.781 471.118 253.289 471.625C252.477 472.508 252.55 472.696 252.448 472.971C252.448 472.971 252.448 472.985 252.434 473C252.304 473.217 252.217 473.434 252.173 473.651C251.449 473.926 250.739 474.23 250.044 474.563C248.986 475.084 247.683 475.373 246.872 476.271C245.727 477.66 247.48 479.643 249.03 478.717C250.189 478.08 251.521 477.646 253.607 476.806C254.81 476.387 256.07 476.227 257.301 475.938C257.62 475.851 257.88 475.721 258.098 475.547C259.372 475.895 260.705 474.433 259.908 473.072V473.086Z"/>
    </g>
    <g opacity="0.13">
      <path fill="black" d="M280.883 585.509C280.738 583.627 280.448 581.76 279.768 579.994C279.304 578.764 278.84 577.534 278.131 576.419C277.696 575.695 277.247 574.885 276.349 574.668C274.524 574.118 272.887 576.245 273.887 577.867C273.887 577.867 273.887 577.867 273.887 577.881C273.655 578.503 273.177 579.097 273.293 579.777C273.394 580.848 274.567 581.225 275.364 580.819C275.683 581.717 275.929 582.73 276.248 584.279C276.523 587.029 276.813 589.765 276.827 592.529C276.784 594.44 276.798 596.365 276.624 598.275C276.146 600.736 275.828 602.82 275.248 604.442C275.205 604.369 275.161 604.297 275.118 604.224C274.727 603.761 274.423 603.139 273.8 602.951C271.888 602.068 270.193 604.644 271.685 606.092C271.801 606.222 271.975 606.41 272.076 606.54C272.105 606.598 272.148 606.642 272.177 606.7C272.177 606.728 272.192 606.757 272.206 606.772C272.206 606.989 272.206 607.192 272.177 607.409C272.177 607.409 272.177 607.394 272.177 607.38C272.177 607.394 272.177 607.423 272.177 607.438C272.148 607.582 272.134 607.727 272.134 607.872C272.076 608.248 272.163 608.639 272.337 608.972C272.496 609.262 272.742 609.464 273.017 609.609C273.307 610.477 274.292 611.071 275.219 610.796C275.987 610.608 276.349 609.855 276.885 609.348C277.856 608.263 278.768 607.105 279.42 605.817C280.68 603.124 281.303 600.099 281.433 597.132C281.462 593.253 281.332 589.359 280.883 585.495V585.509Z"/>
    </g>
    <g opacity="0.13">
      <path fill="black" d="M430.11 614.14C429.255 612.041 428.661 609.87 427.952 607.727C427.039 605.035 425.953 602.401 425.026 599.709C423.722 596.104 422.824 593.108 421.882 590.155C416.132 576.796 410.642 563.334 405.282 549.83C399.532 535.355 394.056 520.765 388.726 506.117C388.175 506.436 387.813 507.073 388.016 507.753C390.58 516.018 394.071 523.964 396.982 532.113C400.444 542.679 403.645 553.362 406.209 564.188C406.774 566.417 407.441 568.632 408.092 570.847C406.818 570.673 405.413 571.831 405.847 573.351C407.469 582.05 408.846 588.057 409.077 596.423C409.121 597.726 409.135 599.028 409.15 600.331C408.932 600.418 408.73 600.534 408.541 600.678C408.324 600.809 408.165 600.997 408.02 601.185C408.339 599.868 408.643 598.551 408.918 597.219C408.483 597.19 408.049 597.32 407.73 597.639C407.31 598.03 407.31 598.609 407.18 599.13C406.687 600.852 406.789 600.794 406.021 601.981C406.006 602.01 405.978 602.039 405.963 602.053C405.905 602.111 405.847 602.198 405.775 602.27C403.167 605.021 400.183 607.713 398.17 609.088C393.766 612.229 391.159 613.228 386.307 614.805C384.829 615.283 383.352 615.732 381.86 616.137C378.716 616.18 375.544 616.412 372.386 616.325C367.345 616.195 362.319 615.616 357.293 615.297C349.963 615.037 341.779 614.907 336.202 613.821C331.393 612.62 326.425 612.634 321.514 612.128C317.111 611.722 315.575 611.447 311.664 610.955C308.869 610.651 304.769 610.275 303.77 610.072C299.67 609.392 291.515 607.887 290.023 607.785C287.344 607.467 285.707 607.105 282.172 607.062C281.39 607.119 280.55 606.859 279.811 607.192C279.13 607.452 278.768 608.017 278.681 608.625C278.174 608.596 277.667 608.567 277.16 608.538C276.914 608.538 276.682 608.581 276.465 608.697C274.64 609.392 275.219 612.2 277.16 612.171C281.462 612.388 285.721 612.721 288.734 613.228C290.921 613.561 293.109 613.879 295.296 614.111C296.252 614.111 297.295 614.545 298.207 614.183C298.599 614.038 298.859 613.792 299.033 613.488C299.424 613.575 299.801 613.662 300.192 613.734C306.522 615.08 311.606 615.24 316.749 616.05C321.775 616.687 326.816 617.078 331.871 617.512C333.015 617.715 337.796 618.511 341.243 618.757C341.446 619.437 342.011 620.002 342.865 619.987C345.458 620.19 348.051 620.523 350.644 620.783C351.368 622.086 352.556 621.695 354.077 622.028C357.409 622.375 360.74 622.303 364.086 622.404C367.534 622.535 370.967 622.81 374.414 622.737C377.34 622.708 380.237 622.361 383.149 622.071C385.597 621.869 388.132 621.84 390.449 620.971C390.449 621.97 391.145 623.012 392.376 622.998C393.071 623.027 393.955 623.012 394.925 622.969C394.94 623.056 394.983 623.128 395.012 623.215C396.113 623.099 397.228 622.998 398.329 622.896C405.108 622.289 411.873 621.985 418.681 621.956C418.797 621.825 418.913 621.695 419 621.55C419.289 621.55 419.579 621.507 419.854 621.406C420.086 621.666 420.347 621.84 420.622 621.941C423.577 621.941 426.518 621.912 429.473 621.811C430.24 621.782 431.008 621.753 431.776 621.71C432.326 621.319 432.703 620.754 432.674 619.973C432.543 618.815 431.877 617.773 431.385 616.73C430.936 615.876 430.516 615.008 430.124 614.125L430.11 614.14ZM399.763 616.18C398.402 617.787 398.271 617.975 397.272 619.061C396.707 619.09 396.157 619.104 395.592 619.104C395.201 619.148 394.78 619.133 394.346 619.104C396.852 617.613 399.242 615.659 401.255 613.647C401.574 613.372 401.893 613.068 402.211 612.764C401.415 613.908 400.603 615.037 399.778 616.151L399.763 616.18ZM420.028 599.202C419.941 598.377 419.854 597.552 419.753 596.741C419.883 597.161 420.028 597.595 420.159 598.015C420.332 598.551 420.506 599.072 420.695 599.607C420.492 599.434 420.274 599.289 420.028 599.202ZM426.387 618.554C426.909 618.409 427.343 618.062 427.618 617.599C427.778 617.917 427.952 618.25 428.125 618.583C427.503 618.569 426.923 618.554 426.387 618.554Z"/>
    </g>
    <path fill="black" d="M269.005 484.029C269.005 484.029 268.904 484.015 268.86 483.986C267.701 483.132 266.18 482.017 264.616 480.946C264.5 480.874 264.471 480.715 264.558 480.599C264.631 480.483 264.79 480.454 264.906 480.541C266.47 481.627 268.006 482.741 269.164 483.595C269.28 483.682 269.295 483.841 269.222 483.942C269.179 484.015 269.092 484.044 269.02 484.044L269.005 484.029Z"/>
    <path fill="black" d="M269.556 490.615C269.556 490.615 269.425 490.586 269.382 490.543L264.153 485.317C264.051 485.216 264.051 485.057 264.153 484.956C264.254 484.854 264.413 484.854 264.515 484.956L269.744 490.181C269.845 490.282 269.845 490.441 269.744 490.543C269.701 490.586 269.628 490.615 269.57 490.615H269.556Z"/>
    <path fill="black" d="M269.787 496.304C269.787 496.304 269.657 496.275 269.614 496.231L263.327 489.949C263.226 489.848 263.226 489.689 263.327 489.587C263.428 489.486 263.588 489.486 263.689 489.587L269.976 495.869C270.077 495.971 270.077 496.13 269.976 496.231C269.932 496.275 269.86 496.304 269.802 496.304H269.787Z"/>
    <path fill="black" d="M270.787 502.137C270.787 502.137 270.656 502.108 270.613 502.064L262.617 494.074C262.516 493.973 262.516 493.814 262.617 493.712C262.718 493.611 262.878 493.611 262.979 493.712L270.975 501.702C271.076 501.804 271.076 501.963 270.975 502.064C270.932 502.108 270.859 502.137 270.801 502.137H270.787Z"/>
    <path fill="black" d="M271.25 508.477C271.25 508.477 271.12 508.448 271.077 508.404L261.545 498.88C261.444 498.779 261.444 498.619 261.545 498.518C261.647 498.417 261.806 498.417 261.907 498.518L271.439 508.042C271.54 508.144 271.54 508.303 271.439 508.404C271.395 508.448 271.323 508.477 271.265 508.477H271.25Z"/>
    <path fill="black" d="M272.612 514.469C272.612 514.469 272.482 514.44 272.438 514.396L260.908 502.875C260.806 502.774 260.806 502.614 260.908 502.513C261.009 502.412 261.169 502.412 261.27 502.513L272.8 514.035C272.902 514.136 272.902 514.295 272.8 514.396C272.757 514.44 272.684 514.469 272.626 514.469H272.612Z"/>
    <path fill="black" d="M273.191 520.07C273.191 520.07 273.061 520.041 273.017 519.998L260.299 507.289C260.198 507.188 260.198 507.029 260.299 506.928C260.401 506.826 260.56 506.826 260.662 506.928L273.38 519.636C273.481 519.737 273.481 519.897 273.38 519.998C273.336 520.041 273.264 520.07 273.206 520.07H273.191Z"/>
    <path fill="black" d="M271.888 469.005C271.888 469.005 271.757 468.976 271.714 468.932L266.934 464.156C266.832 464.055 266.832 463.895 266.934 463.794C267.035 463.693 267.194 463.693 267.296 463.794L272.076 468.571C272.177 468.672 272.177 468.831 272.076 468.932C272.033 468.976 271.96 469.005 271.902 469.005H271.888Z"/>
    <path fill="black" d="M270.787 472.696C270.787 472.696 270.656 472.667 270.613 472.623L263.399 465.415C263.298 465.314 263.298 465.155 263.399 465.053C263.501 464.952 263.66 464.952 263.761 465.053L270.975 472.262C271.076 472.363 271.076 472.522 270.975 472.623C270.932 472.667 270.859 472.696 270.801 472.696H270.787Z"/>
    <path fill="black" d="M268.889 475.07C268.889 475.07 268.759 475.041 268.715 474.997L260.98 467.268C260.879 467.167 260.879 467.007 260.98 466.906C261.082 466.805 261.241 466.805 261.342 466.906L269.078 474.635C269.179 474.737 269.179 474.896 269.078 474.997C269.034 475.041 268.962 475.07 268.904 475.07H268.889Z"/>
    <path fill="black" d="M266.137 476.401C266.137 476.401 266.007 476.372 265.963 476.329L260.502 470.872C260.401 470.771 260.401 470.611 260.502 470.51C260.604 470.409 260.763 470.409 260.864 470.51L266.325 475.967C266.427 476.068 266.427 476.227 266.325 476.329C266.282 476.372 266.21 476.401 266.152 476.401H266.137Z"/>
    <path fill="black" d="M273.945 525.629C273.945 525.629 273.814 525.6 273.771 525.556L259.445 511.241C259.344 511.14 259.344 510.981 259.445 510.879C259.546 510.778 259.706 510.778 259.807 510.879L274.133 525.194C274.234 525.296 274.234 525.455 274.133 525.556C274.09 525.6 274.017 525.629 273.959 525.629H273.945Z"/>
    <path fill="black" d="M274.35 531.013C274.35 531.013 274.22 530.984 274.176 530.941L258.634 515.41C258.532 515.308 258.532 515.149 258.634 515.048C258.735 514.946 258.894 514.946 258.996 515.048L274.538 530.579C274.64 530.68 274.64 530.839 274.538 530.941C274.495 530.984 274.423 531.013 274.365 531.013H274.35Z"/>
    <path fill="black" d="M274.64 536.542C274.64 536.542 274.51 536.513 274.466 536.47L257.953 519.969C257.852 519.868 257.852 519.709 257.953 519.607C258.054 519.506 258.214 519.506 258.315 519.607L274.828 536.108C274.93 536.209 274.93 536.369 274.828 536.47C274.785 536.513 274.712 536.542 274.654 536.542H274.64Z"/>
    <path fill="black" d="M275.103 542.014C275.103 542.014 274.973 541.985 274.929 541.941L256.982 524.007C256.881 523.906 256.881 523.747 256.982 523.646C257.084 523.544 257.243 523.544 257.344 523.646L275.292 541.579C275.393 541.681 275.393 541.84 275.292 541.941C275.248 541.985 275.176 542.014 275.118 542.014H275.103Z"/>
    <path fill="black" d="M274.785 546.863C274.785 546.863 274.654 546.834 274.611 546.79L256.026 528.22C255.925 528.118 255.925 527.959 256.026 527.858C256.128 527.756 256.287 527.756 256.389 527.858L274.973 546.428C275.075 546.53 275.075 546.689 274.973 546.79C274.93 546.834 274.857 546.863 274.799 546.863H274.785Z"/>
    <path fill="black" d="M273.64 550.495C273.64 550.495 273.51 550.467 273.467 550.423L255.519 532.489C255.418 532.388 255.418 532.229 255.519 532.128C255.621 532.026 255.78 532.026 255.882 532.128L273.829 550.061C273.93 550.163 273.93 550.322 273.829 550.423C273.785 550.467 273.713 550.495 273.655 550.495H273.64Z"/>
    <path fill="black" d="M272.554 553.969C272.554 553.969 272.424 553.94 272.38 553.897L254.781 536.311C254.679 536.209 254.679 536.05 254.781 535.949C254.882 535.847 255.041 535.847 255.143 535.949L272.742 553.535C272.844 553.636 272.844 553.796 272.742 553.897C272.699 553.94 272.626 553.969 272.568 553.969H272.554Z"/>
    <path fill="black" d="M271.497 557.327C271.497 557.327 271.366 557.299 271.323 557.255L254.245 540.19C254.143 540.088 254.143 539.929 254.245 539.828C254.346 539.727 254.505 539.727 254.607 539.828L271.685 556.893C271.786 556.995 271.786 557.154 271.685 557.255C271.641 557.299 271.569 557.327 271.511 557.327H271.497Z"/>
    <path fill="black" d="M270.265 560.483C270.265 560.483 270.135 560.454 270.092 560.41L253.665 543.996C253.564 543.895 253.564 543.736 253.665 543.635C253.767 543.533 253.926 543.533 254.028 543.635L270.454 560.049C270.555 560.15 270.555 560.309 270.454 560.41C270.41 560.454 270.338 560.483 270.28 560.483H270.265Z"/>
    <path fill="black" d="M268.817 563.392C268.817 563.392 268.687 563.363 268.643 563.32L254.027 548.715C253.926 548.614 253.926 548.455 254.027 548.353C254.129 548.252 254.288 548.252 254.39 548.353L269.005 562.958C269.107 563.059 269.107 563.219 269.005 563.32C268.962 563.363 268.889 563.392 268.831 563.392H268.817Z"/>
    <path fill="black" d="M268.266 567.402C268.266 567.402 268.136 567.373 268.092 567.329L256.244 555.489C256.142 555.388 256.142 555.229 256.244 555.127C256.345 555.026 256.504 555.026 256.606 555.127L268.455 566.967C268.556 567.069 268.556 567.228 268.455 567.329C268.411 567.373 268.339 567.402 268.281 567.402H268.266Z"/>
    <path fill="black" d="M266.818 570.166C266.818 570.166 266.688 570.137 266.644 570.094L260.227 563.682C260.126 563.58 260.126 563.421 260.227 563.32C260.329 563.219 260.488 563.219 260.589 563.32L267.006 569.732C267.108 569.833 267.108 569.993 267.006 570.094C266.963 570.137 266.89 570.166 266.832 570.166H266.818Z"/>
    <path fill="white" d="M349.326 375.052L352.121 384.112H361.189L353.86 389.714L356.655 398.775L349.326 393.173L341.996 398.775L344.792 389.714L337.462 384.112H346.53L349.326 375.052Z"/>
    <path fill="black" d="M356.655 399.528C356.496 399.528 356.336 399.47 356.192 399.368L349.311 394.114L342.431 399.368C342.17 399.571 341.808 399.571 341.547 399.383C341.272 399.195 341.156 398.862 341.257 398.543L343.908 389.989L336.999 384.706C336.738 384.503 336.637 384.17 336.738 383.866C336.839 383.562 337.129 383.36 337.448 383.36H345.951L348.587 374.834C348.688 374.516 348.978 374.299 349.311 374.299C349.644 374.299 349.934 374.516 350.035 374.834L352.672 383.36H361.175C361.493 383.36 361.783 383.562 361.884 383.866C361.986 384.17 361.884 384.518 361.624 384.706L354.714 389.989L357.365 398.543C357.466 398.862 357.35 399.195 357.075 399.383C356.945 399.47 356.8 399.513 356.641 399.513L356.655 399.528ZM349.326 392.421C349.485 392.421 349.644 392.479 349.789 392.58L355.25 396.749L353.15 389.946C353.063 389.642 353.15 389.309 353.41 389.121L358.973 384.88H352.136C351.803 384.88 351.513 384.662 351.411 384.344L349.326 377.613L347.24 384.344C347.138 384.662 346.849 384.88 346.515 384.88H339.678L345.241 389.121C345.487 389.309 345.603 389.642 345.502 389.946L343.401 396.749L348.862 392.58C348.992 392.479 349.152 392.421 349.326 392.421Z"/>
    <path fill="white" d="M386.133 375.052L388.928 384.112H397.996L390.667 389.714L393.462 398.775L386.133 393.173L378.789 398.775L381.599 389.714L374.269 384.112H383.323L386.133 375.052Z"/>
    <path fill="black" d="M393.462 399.528C393.303 399.528 393.144 399.47 392.999 399.368L386.118 394.114L379.238 399.368C378.977 399.571 378.615 399.571 378.354 399.383C378.079 399.195 377.963 398.862 378.064 398.543L380.715 389.989L373.806 384.706C373.545 384.503 373.444 384.17 373.545 383.866C373.646 383.562 373.936 383.36 374.255 383.36H382.758L385.394 374.834C385.495 374.516 385.785 374.299 386.118 374.299C386.451 374.299 386.741 374.516 386.843 374.834L389.479 383.36H397.982C398.3 383.36 398.59 383.562 398.691 383.866C398.793 384.17 398.691 384.518 398.431 384.706L391.521 389.989L394.172 398.543C394.273 398.862 394.158 399.195 393.882 399.383C393.752 399.47 393.607 399.513 393.448 399.513L393.462 399.528ZM386.133 392.421C386.292 392.421 386.451 392.479 386.596 392.58L392.057 396.749L389.957 389.946C389.87 389.642 389.957 389.323 390.218 389.121L395.78 384.88H388.943C388.61 384.88 388.32 384.662 388.219 384.344L386.133 377.613L384.047 384.344C383.945 384.662 383.656 384.88 383.323 384.88H376.486L382.048 389.121C382.294 389.309 382.41 389.642 382.309 389.946L380.208 396.749L385.669 392.58C385.8 392.479 385.959 392.421 386.133 392.421Z"/>
    <path fill="white" d="M422.925 375.052L425.735 384.112H434.803L427.459 389.714L430.269 398.775L422.925 393.173L415.596 398.775L418.391 389.714L411.062 384.112H420.13L422.925 375.052Z"/>
    <path fill="black" d="M430.269 399.528C430.11 399.528 429.95 399.47 429.806 399.368L422.925 394.114L416.045 399.368C415.784 399.571 415.422 399.571 415.161 399.383C414.886 399.195 414.77 398.862 414.871 398.543L417.522 389.989L410.613 384.706C410.352 384.503 410.251 384.17 410.352 383.866C410.453 383.562 410.743 383.36 411.062 383.36H419.565L422.201 374.834C422.302 374.516 422.592 374.299 422.925 374.299C423.258 374.299 423.548 374.516 423.649 374.834L426.286 383.36H434.789C435.107 383.36 435.397 383.562 435.498 383.866C435.6 384.17 435.498 384.518 435.238 384.706L428.328 389.989L430.979 398.543C431.08 398.862 430.964 399.195 430.689 399.383C430.559 399.47 430.414 399.513 430.255 399.513L430.269 399.528ZM422.925 392.421C423.084 392.421 423.244 392.479 423.389 392.58L428.85 396.749L426.749 389.946C426.662 389.642 426.749 389.323 427.01 389.121L432.572 384.88H425.735C425.402 384.88 425.112 384.662 425.011 384.344L422.925 377.613L420.839 384.344C420.738 384.662 420.448 384.88 420.115 384.88H413.278L418.84 389.121C419.087 389.309 419.202 389.642 419.101 389.946L417.001 396.749L422.462 392.58C422.592 392.479 422.751 392.421 422.925 392.421Z"/>
    <path fill="white" d="M422.838 12.2222H107.162V238.442H422.838V12.2222Z"/>
    <path fill="black" d="M422.838 239.195H107.162C106.742 239.195 106.408 238.862 106.408 238.442V12.2368C106.408 11.817 106.742 11.4841 107.162 11.4841H422.838C423.258 11.4841 423.591 11.817 423.591 12.2368V238.457C423.591 238.877 423.258 239.21 422.838 239.21V239.195ZM107.915 237.69H422.085V12.9895H107.915V237.704V237.69Z"/>
    <path fill="white" d="M422.838 0.859863H107.162V20.4292H422.838V0.859863Z"/>
    <path fill="black" d="M422.838 21.1819H107.162C106.742 21.1819 106.408 20.849 106.408 20.4292V0.859846C106.408 0.440089 106.742 0.107178 107.162 0.107178H422.838C423.258 0.107178 423.591 0.440089 423.591 0.859846V20.4292C423.591 20.849 423.258 21.1819 422.838 21.1819ZM107.915 19.6765H422.085V1.61251H107.915V19.6765Z"/>
    <path fill="white" d="M353.802 10.6445C353.802 8.34303 355.67 6.47583 357.974 6.47583C360.277 6.47583 362.145 8.34303 362.145 10.6445C362.145 12.9459 360.277 14.8131 357.974 14.8131C355.67 14.8131 353.802 12.9459 353.802 10.6445Z"/>
    <path fill="black" d="M357.973 15.5804C355.25 15.5804 353.048 13.3658 353.048 10.6591C353.048 7.95237 355.265 5.73779 357.973 5.73779C360.682 5.73779 362.898 7.95237 362.898 10.6591C362.898 13.3658 360.682 15.5804 357.973 15.5804ZM357.973 7.22865C356.09 7.22865 354.555 8.76294 354.555 10.6446C354.555 12.5263 356.09 14.0606 357.973 14.0606C359.856 14.0606 361.392 12.5263 361.392 10.6446C361.392 8.76294 359.856 7.22865 357.973 7.22865Z"/>
    <path fill="white" d="M378.571 10.6445C378.571 8.34303 380.44 6.47583 382.743 6.47583C385.046 6.47583 386.915 8.34303 386.915 10.6445C386.915 12.9459 385.046 14.8131 382.743 14.8131C380.44 14.8131 378.571 12.9459 378.571 10.6445Z"/>
    <path fill="black" d="M382.743 15.5804C380.02 15.5804 377.818 13.3658 377.818 10.6591C377.818 7.95237 380.034 5.73779 382.743 5.73779C385.452 5.73779 387.668 7.95237 387.668 10.6591C387.668 13.3658 385.452 15.5804 382.743 15.5804ZM382.743 7.22865C380.86 7.22865 379.325 8.76294 379.325 10.6446C379.325 12.5263 380.86 14.0606 382.743 14.0606C384.626 14.0606 386.162 12.5263 386.162 10.6446C386.162 8.76294 384.626 7.22865 382.743 7.22865Z"/>
    <path fill="white" d="M402.762 10.6445C402.762 8.34303 404.63 6.47583 406.933 6.47583C409.237 6.47583 411.105 8.34303 411.105 10.6445C411.105 12.9459 409.237 14.8131 406.933 14.8131C404.63 14.8131 402.762 12.9459 402.762 10.6445Z"/>
    <path fill="black" d="M406.934 15.5804C404.21 15.5804 402.009 13.3658 402.009 10.6591C402.009 7.95237 404.225 5.73779 406.934 5.73779C409.642 5.73779 411.858 7.95237 411.858 10.6591C411.858 13.3658 409.642 15.5804 406.934 15.5804ZM406.934 7.22865C405.05 7.22865 403.515 8.76294 403.515 10.6446C403.515 12.5263 405.05 14.0606 406.934 14.0606C408.817 14.0606 410.352 12.5263 410.352 10.6446C410.352 8.76294 408.817 7.22865 406.934 7.22865Z"/>
    <g opacity="0.13">
      <path fill="black" d="M421.737 21.3267C421.346 21.0228 420.086 20.9359 420.477 21.0083C419.695 20.9214 418.898 21.0083 418.102 20.907C414.871 20.7478 411.641 20.6609 408.396 20.603C398.677 20.2701 389.001 21.3991 379.281 21.2254C374.342 21.2833 369.402 21.4425 364.463 21.2254C360.639 21.1965 356.829 20.7912 353.005 20.7043C341.953 20.7767 330.915 19.8938 319.848 20.1543C310.259 20.2846 300.655 20.2122 291.066 19.9951C283.403 19.9227 275.741 19.9951 268.093 19.9372C261.705 19.6911 255.346 20.3425 248.958 20.328C234.979 20.5306 220.987 20.5451 207.023 20.1398C201.924 20.0675 196.811 19.8938 191.726 20.2122C187.453 20.4583 183.166 20.299 178.892 20.3569C174.156 20.3425 169.419 20.299 164.682 20.2846C159.106 20.0385 153.514 19.9227 147.923 20.1109C143.375 20.1109 138.826 20.4727 134.278 20.603C130.092 20.603 125.891 20.6754 121.705 20.6609C118.605 20.4583 115.491 20.3859 112.376 20.5017C110.74 20.6464 108.842 20.0819 107.567 21.3412C105.901 23.0202 107.06 26.1756 109.552 26.1177C113.231 26.2335 116.91 26.0888 120.575 26.4362C125.963 26.6099 131.381 26.6388 136.769 26.3783C143.389 25.9441 150.009 25.7125 156.629 25.7269C161.742 25.8283 166.87 26.0164 171.983 25.9875C177.603 26.1033 183.224 26.1033 188.844 26.0599C192.494 25.9441 196.13 25.6835 199.795 25.7993C209.978 25.9875 220.146 26.3783 230.33 26.1901C240.614 26.1612 250.899 26.3349 261.169 25.7704C270.338 25.8138 279.521 25.7993 288.691 25.8862C302.307 26.1901 315.908 25.8862 329.51 25.8427C337.766 26.0454 346.038 26.2625 354.294 26.2191C360.479 26.4941 366.679 26.8559 372.879 26.6967C377.818 26.523 382.758 26.5809 387.697 26.3928C390.681 26.277 393.636 25.8572 396.62 25.7993C404.355 25.4809 412.105 25.6835 419.84 25.7704C420.694 25.8283 421.607 25.7704 422.23 25.0901C423.302 24.0334 423.084 22.0939 421.752 21.3412L421.737 21.3267Z"/>
    </g>
    <path fill="black" d="M159.062 196.076C158.889 196.076 158.715 196.018 158.584 195.902C158.266 195.642 158.222 195.164 158.483 194.845L184.687 163.306C184.947 163.002 185.397 162.944 185.715 163.19L202.619 175.783L240.006 114.889C240.122 114.715 240.296 114.585 240.498 114.542C240.701 114.498 240.918 114.542 241.092 114.672L260.068 128.466L280.796 92.2944C280.912 92.0918 281.129 91.947 281.361 91.9181C281.607 91.8891 281.839 91.976 281.998 92.1497L309.216 121.692L317.183 115.294C317.342 115.164 317.56 115.106 317.763 115.135C317.965 115.164 318.154 115.28 318.27 115.439L346.269 154.94L386.104 110.677C386.379 110.373 386.857 110.344 387.176 110.619C387.494 110.894 387.509 111.372 387.234 111.69L346.762 156.662C346.603 156.836 346.385 156.937 346.154 156.908C345.922 156.908 345.719 156.778 345.589 156.59L317.502 116.973L309.607 123.299C309.303 123.545 308.854 123.516 308.579 123.226L281.578 93.93L260.951 129.942C260.85 130.13 260.662 130.261 260.459 130.304C260.256 130.348 260.024 130.304 259.851 130.174L240.86 116.365L203.474 177.274C203.358 177.447 203.184 177.577 202.967 177.621C202.764 177.664 202.547 177.621 202.373 177.491L185.382 164.826L159.627 195.815C159.482 195.989 159.265 196.09 159.048 196.09L159.062 196.076Z"/>
    <path fill="black" d="M185.483 212.519C185.063 212.519 184.73 212.186 184.73 211.766L184.701 205.73C184.701 205.311 185.034 204.978 185.454 204.978C185.874 204.978 186.208 205.311 186.208 205.73L186.237 211.766C186.237 212.186 185.903 212.519 185.483 212.519ZM185.44 200.462C185.02 200.462 184.687 200.129 184.687 199.709L184.658 193.673C184.658 193.253 184.991 192.92 185.411 192.92C185.831 192.92 186.164 193.253 186.164 193.673L186.193 199.709C186.193 200.129 185.86 200.462 185.44 200.462ZM185.396 188.404C184.976 188.404 184.643 188.072 184.643 187.652L184.614 181.616C184.614 181.196 184.947 180.863 185.367 180.863C185.788 180.863 186.121 181.196 186.121 181.616L186.15 187.652C186.15 188.072 185.817 188.404 185.396 188.404ZM185.353 176.347C184.933 176.347 184.6 176.014 184.6 175.595L184.571 169.559C184.571 169.139 184.904 168.806 185.324 168.806C185.744 168.806 186.077 169.139 186.077 169.559L186.106 175.595C186.106 176.014 185.773 176.347 185.353 176.347Z"/>
    <path fill="black" d="M240.745 211.505C240.325 211.505 239.991 211.173 239.991 210.753V204.717C239.991 204.297 240.31 203.964 240.73 203.964C241.15 203.964 241.483 204.297 241.483 204.717V210.753C241.483 211.173 241.165 211.505 240.745 211.505ZM240.716 199.448C240.296 199.448 239.962 199.115 239.962 198.696V192.66C239.962 192.24 240.281 191.907 240.701 191.907C241.121 191.907 241.454 192.24 241.454 192.66V198.696C241.454 199.115 241.136 199.448 240.716 199.448ZM240.701 187.391C240.281 187.391 239.948 187.058 239.948 186.638V180.603C239.948 180.183 240.267 179.85 240.687 179.85C241.107 179.85 241.44 180.183 241.44 180.603V186.638C241.44 187.058 241.121 187.391 240.701 187.391ZM240.672 175.334C240.252 175.334 239.919 175.001 239.919 174.581V168.546C239.919 168.126 240.238 167.793 240.658 167.793C241.078 167.793 241.411 168.126 241.411 168.546V174.581C241.411 175.001 241.092 175.334 240.672 175.334ZM240.658 163.277C240.238 163.277 239.904 162.944 239.904 162.524V156.488C239.904 156.069 240.223 155.736 240.643 155.736C241.063 155.736 241.396 156.069 241.396 156.488V162.524C241.396 162.944 241.078 163.277 240.658 163.277ZM240.629 151.22C240.209 151.22 239.875 150.887 239.875 150.467V144.431C239.875 144.011 240.194 143.679 240.614 143.679C241.034 143.679 241.367 144.011 241.367 144.431V150.467C241.367 150.887 241.049 151.22 240.629 151.22ZM240.614 139.163C240.194 139.163 239.861 138.83 239.861 138.41V132.374C239.861 131.954 240.18 131.621 240.6 131.621C241.02 131.621 241.353 131.954 241.353 132.374V138.41C241.353 138.83 241.034 139.163 240.614 139.163ZM240.585 127.105C240.165 127.105 239.832 126.772 239.832 126.353V120.317C239.832 119.897 240.151 119.564 240.571 119.564C240.991 119.564 241.324 119.897 241.324 120.317V126.353C241.324 126.772 241.005 127.105 240.585 127.105Z"/>
    <path fill="black" d="M282.52 211.506C282.1 211.506 281.767 211.173 281.767 210.753V204.717C281.767 204.297 282.1 203.964 282.505 203.964C282.925 203.964 283.259 204.297 283.259 204.717V210.753C283.259 211.173 282.925 211.506 282.52 211.506ZM282.491 199.448C282.071 199.448 281.738 199.115 281.738 198.696V192.66C281.738 192.24 282.071 191.907 282.476 191.907C282.896 191.907 283.23 192.24 283.23 192.66V198.696C283.23 199.115 282.896 199.448 282.491 199.448ZM282.476 187.391C282.056 187.391 281.723 187.058 281.723 186.639V180.603C281.723 180.183 282.056 179.85 282.462 179.85C282.882 179.85 283.215 180.183 283.215 180.603V186.639C283.215 187.058 282.882 187.391 282.476 187.391ZM282.462 175.334C282.042 175.334 281.709 175.001 281.709 174.581V168.546C281.709 168.126 282.042 167.793 282.447 167.793C282.867 167.793 283.201 168.126 283.201 168.546V174.581C283.201 175.001 282.867 175.334 282.462 175.334ZM282.447 163.277C282.027 163.277 281.694 162.944 281.694 162.524V156.488C281.694 156.069 282.027 155.736 282.433 155.736C282.853 155.736 283.186 156.069 283.186 156.488V162.524C283.186 162.944 282.853 163.277 282.447 163.277ZM282.418 151.22C281.998 151.22 281.665 150.887 281.665 150.467V144.431C281.665 144.011 281.998 143.679 282.404 143.679C282.824 143.679 283.157 144.011 283.157 144.431V150.467C283.157 150.887 282.824 151.22 282.418 151.22ZM282.404 139.163C281.984 139.163 281.651 138.83 281.651 138.41V132.374C281.651 131.954 281.984 131.621 282.389 131.621C282.81 131.621 283.143 131.954 283.143 132.374V138.41C283.143 138.83 282.81 139.163 282.404 139.163ZM282.389 127.105C281.969 127.105 281.636 126.773 281.636 126.353V120.317C281.636 119.897 281.969 119.564 282.375 119.564C282.795 119.564 283.128 119.897 283.128 120.317V126.353C283.128 126.773 282.795 127.105 282.389 127.105ZM282.375 115.048C281.955 115.048 281.622 114.715 281.622 114.296V108.26C281.622 107.84 281.955 107.507 282.36 107.507C282.781 107.507 283.114 107.84 283.114 108.26V114.296C283.114 114.715 282.781 115.048 282.375 115.048ZM282.346 102.991C281.926 102.991 281.593 102.658 281.593 102.238V96.2026C281.593 95.7829 281.926 95.45 282.332 95.45C282.752 95.45 283.085 95.7829 283.085 96.2026V102.238C283.085 102.658 282.752 102.991 282.346 102.991Z"/>
    <path fill="black" d="M317.893 211.505C317.473 211.505 317.139 211.173 317.139 210.753V204.717C317.139 204.297 317.458 203.964 317.878 203.964C318.298 203.964 318.631 204.297 318.631 204.717V210.753C318.631 211.173 318.313 211.505 317.893 211.505ZM317.878 199.448C317.458 199.448 317.125 199.115 317.125 198.696V192.66C317.125 192.24 317.444 191.907 317.864 191.907C318.284 191.907 318.617 192.24 318.617 192.66V198.696C318.617 199.115 318.298 199.448 317.878 199.448ZM317.849 187.391C317.429 187.391 317.096 187.058 317.096 186.638V180.603C317.096 180.183 317.415 179.85 317.835 179.85C318.255 179.85 318.588 180.183 318.588 180.603V186.638C318.588 187.058 318.269 187.391 317.849 187.391ZM317.835 175.334C317.415 175.334 317.082 175.001 317.082 174.581V168.546C317.082 168.126 317.4 167.793 317.82 167.793C318.24 167.793 318.574 168.126 318.574 168.546V174.581C318.574 175.001 318.255 175.334 317.835 175.334ZM317.806 163.277C317.386 163.277 317.053 162.944 317.053 162.524V156.488C317.053 156.069 317.371 155.736 317.791 155.736C318.211 155.736 318.545 156.069 318.545 156.488V162.524C318.545 162.944 318.226 163.277 317.806 163.277ZM317.791 151.22C317.371 151.22 317.038 150.887 317.038 150.467V144.431C317.038 144.011 317.357 143.679 317.777 143.679C318.197 143.679 318.53 144.011 318.53 144.431V150.467C318.53 150.887 318.211 151.22 317.791 151.22ZM317.762 139.163C317.342 139.163 317.009 138.83 317.009 138.41V132.374C317.009 131.954 317.328 131.621 317.748 131.621C318.168 131.621 318.501 131.954 318.501 132.374V138.41C318.501 138.83 318.182 139.163 317.762 139.163ZM317.748 127.105C317.328 127.105 316.995 126.772 316.995 126.353V120.317C316.995 119.897 317.313 119.564 317.733 119.564C318.153 119.564 318.487 119.897 318.487 120.317V126.353C318.487 126.772 318.168 127.105 317.748 127.105Z"/>
    <path fill="black" d="M386.77 212.519C386.35 212.519 386.017 212.186 386.017 211.766V205.73C386.017 205.31 386.335 204.978 386.755 204.978C387.176 204.978 387.509 205.31 387.509 205.73V211.766C387.509 212.186 387.19 212.519 386.77 212.519ZM386.755 200.462C386.335 200.462 386.002 200.129 386.002 199.709V193.673C386.002 193.253 386.321 192.92 386.741 192.92C387.161 192.92 387.494 193.253 387.494 193.673V199.709C387.494 200.129 387.176 200.462 386.755 200.462ZM386.727 188.404C386.306 188.404 385.973 188.072 385.973 187.652V181.616C385.973 181.196 386.292 180.863 386.712 180.863C387.132 180.863 387.465 181.196 387.465 181.616V187.652C387.465 188.072 387.147 188.404 386.727 188.404ZM386.712 176.347C386.292 176.347 385.959 176.014 385.959 175.595V169.559C385.959 169.139 386.277 168.806 386.698 168.806C387.118 168.806 387.451 169.139 387.451 169.559V175.595C387.451 176.014 387.132 176.347 386.712 176.347ZM386.683 164.29C386.263 164.29 385.93 163.957 385.93 163.537V157.502C385.93 157.082 386.249 156.749 386.669 156.749C387.089 156.749 387.422 157.082 387.422 157.502V163.537C387.422 163.957 387.103 164.29 386.683 164.29ZM386.669 152.233C386.249 152.233 385.915 151.9 385.915 151.48V145.444C385.915 145.025 386.234 144.692 386.654 144.692C387.074 144.692 387.407 145.025 387.407 145.444V151.48C387.407 151.9 387.089 152.233 386.669 152.233ZM386.64 140.176C386.22 140.176 385.886 139.843 385.886 139.423V133.387C385.886 132.968 386.205 132.635 386.625 132.635C387.045 132.635 387.378 132.968 387.378 133.387V139.423C387.378 139.843 387.06 140.176 386.64 140.176ZM386.625 128.119C386.205 128.119 385.872 127.786 385.872 127.366V121.33C385.872 120.91 386.191 120.577 386.611 120.577C387.031 120.577 387.364 120.91 387.364 121.33V127.366C387.364 127.786 387.045 128.119 386.625 128.119ZM386.611 116.061C386.191 116.061 385.857 115.729 385.857 115.309V110.981C385.857 110.561 386.191 110.228 386.596 110.228C387.016 110.228 387.349 110.561 387.349 110.981V115.309C387.349 115.729 387.016 116.061 386.611 116.061Z"/>
    <path fill="black" d="M395.505 212.519H153.703C153.283 212.519 152.949 212.186 152.949 211.766C152.949 211.346 153.283 211.013 153.703 211.013H395.49C395.91 211.013 396.243 211.346 396.243 211.766C396.243 212.186 395.91 212.519 395.49 212.519H395.505Z"/>
    <path fill="black" d="M289.676 209.392C289.676 209.392 289.56 209.378 289.516 209.334L285.489 205.802C285.388 205.716 285.373 205.556 285.46 205.455C285.547 205.354 285.707 205.339 285.808 205.426L289.835 208.958C289.936 209.045 289.951 209.204 289.864 209.305C289.82 209.363 289.748 209.392 289.676 209.392Z"/>
    <path fill="black" d="M296.006 209.465C296.006 209.465 295.904 209.45 295.861 209.421C292.037 206.772 288.314 203.907 284.794 200.881C284.693 200.795 284.678 200.635 284.765 200.534C284.852 200.433 285.011 200.418 285.113 200.505C288.618 203.516 292.341 206.382 296.136 209.016C296.252 209.088 296.281 209.248 296.194 209.363C296.15 209.436 296.064 209.465 295.991 209.465H296.006Z"/>
    <path fill="black" d="M301.003 209.378C301.003 209.378 300.887 209.363 300.844 209.32C295.528 205.093 290.197 200.751 284.982 196.394C284.881 196.307 284.866 196.148 284.953 196.047C285.04 195.946 285.2 195.931 285.301 196.018C290.516 200.36 295.846 204.717 301.162 208.929C301.278 209.016 301.293 209.175 301.206 209.276C301.162 209.334 301.09 209.378 301.003 209.378Z"/>
    <path fill="black" d="M306.029 209.494C306.029 209.494 305.913 209.479 305.87 209.436C298.743 203.791 291.689 197.856 284.91 191.806C284.808 191.719 284.794 191.56 284.895 191.444C284.982 191.343 285.142 191.328 285.257 191.429C292.022 197.48 299.076 203.4 306.189 209.045C306.305 209.132 306.319 209.291 306.232 209.392C306.189 209.45 306.116 209.494 306.029 209.494Z"/>
    <path fill="black" d="M310.549 209.493C310.549 209.493 310.433 209.465 310.375 209.421C302.278 201.909 293.833 194.556 285.272 187.579C285.171 187.492 285.142 187.333 285.243 187.232C285.33 187.131 285.489 187.102 285.591 187.203C294.166 194.194 302.611 201.547 310.723 209.059C310.824 209.161 310.824 209.305 310.723 209.421C310.679 209.479 310.607 209.508 310.534 209.508L310.549 209.493Z"/>
    <path fill="black" d="M316.068 209.03C316.068 209.03 315.952 209.016 315.894 208.973L285.026 181.5C284.924 181.413 284.91 181.254 285.011 181.138C285.098 181.037 285.258 181.023 285.373 181.124L316.241 208.596C316.343 208.683 316.357 208.842 316.256 208.958C316.213 209.016 316.14 209.045 316.068 209.045V209.03Z"/>
    <path fill="black" d="M314.923 202.531C314.923 202.531 314.807 202.517 314.764 202.474C304.465 194.078 294.383 185.148 284.794 175.942C284.693 175.841 284.693 175.681 284.794 175.58C284.895 175.479 285.055 175.479 285.156 175.58C294.731 184.771 304.813 193.688 315.097 202.083C315.199 202.17 315.228 202.329 315.126 202.43C315.083 202.488 315.01 202.517 314.938 202.517L314.923 202.531Z"/>
    <path fill="black" d="M314.402 197.002C314.402 197.002 314.286 196.988 314.228 196.944L284.895 170.673C284.794 170.586 284.78 170.427 284.881 170.311C284.968 170.21 285.127 170.196 285.243 170.297L314.576 196.568C314.677 196.655 314.692 196.814 314.59 196.93C314.547 196.988 314.474 197.017 314.402 197.017V197.002Z"/>
    <path fill="black" d="M314.214 191.01C314.214 191.01 314.112 190.995 314.069 190.966C310.448 188.346 307.087 185.321 303.813 182.397C297.614 176.839 291.211 171.107 285.084 165.231C284.982 165.129 284.982 164.97 285.084 164.869C285.185 164.768 285.345 164.768 285.446 164.869C291.559 170.731 297.961 176.463 304.161 182.021C307.42 184.93 310.781 187.956 314.373 190.561C314.489 190.648 314.503 190.793 314.431 190.908C314.387 190.981 314.301 191.01 314.228 191.01H314.214Z"/>
    <path fill="black" d="M314.228 186.132C314.228 186.132 314.112 186.118 314.069 186.074C304.016 178.099 294.253 169.53 285.055 160.599C284.953 160.498 284.953 160.339 285.055 160.237C285.156 160.136 285.316 160.136 285.417 160.237C294.615 169.154 304.364 177.722 314.402 185.683C314.518 185.77 314.532 185.929 314.445 186.031C314.402 186.089 314.329 186.132 314.243 186.132H314.228Z"/>
    <path fill="black" d="M314.199 181.312C314.199 181.312 314.083 181.298 314.04 181.254C304.219 172.758 294.412 163.957 284.924 155.099C284.823 154.998 284.823 154.838 284.924 154.737C285.026 154.636 285.185 154.636 285.287 154.737C294.774 163.595 304.566 172.381 314.387 180.878C314.489 180.965 314.503 181.124 314.416 181.225C314.373 181.283 314.3 181.312 314.228 181.312H314.199Z"/>
    <path fill="black" d="M314.083 176.159C314.083 176.159 313.967 176.145 313.924 176.101C304.059 168.024 294.296 159.586 284.881 151.003C284.78 150.916 284.765 150.757 284.867 150.641C284.953 150.539 285.113 150.525 285.229 150.626C294.644 159.195 304.407 167.648 314.257 175.71C314.358 175.797 314.373 175.956 314.286 176.058C314.243 176.116 314.17 176.145 314.098 176.145L314.083 176.159Z"/>
    <path fill="black" d="M314.112 171.107C314.112 171.107 313.996 171.093 313.953 171.05L284.939 146.501C284.837 146.414 284.823 146.255 284.91 146.154C284.997 146.052 285.156 146.038 285.257 146.125L314.271 170.673C314.373 170.76 314.387 170.919 314.3 171.021C314.257 171.078 314.184 171.107 314.112 171.107Z"/>
    <path fill="black" d="M314.46 166.447C314.46 166.447 314.344 166.432 314.3 166.389L284.678 141.609C284.577 141.522 284.562 141.363 284.649 141.261C284.736 141.16 284.895 141.145 284.997 141.232L314.619 166.012C314.72 166.099 314.735 166.259 314.648 166.36C314.605 166.418 314.532 166.447 314.46 166.447Z"/>
    <path fill="black" d="M314.257 160.758C314.257 160.758 314.141 160.744 314.098 160.7C304.161 152.667 294.253 144.359 284.62 135.993C284.519 135.906 284.504 135.747 284.591 135.645C284.678 135.544 284.838 135.53 284.939 135.616C294.572 143.983 304.479 152.291 314.402 160.31C314.503 160.396 314.532 160.556 314.445 160.657C314.402 160.715 314.329 160.744 314.243 160.744L314.257 160.758Z"/>
    <path fill="black" d="M314.489 156.228C314.489 156.228 314.387 156.213 314.329 156.17C304.146 148.282 294.108 139.959 284.475 131.419C284.374 131.332 284.359 131.173 284.461 131.057C284.548 130.956 284.707 130.941 284.808 131.043C294.441 139.568 304.479 147.891 314.648 155.779C314.764 155.866 314.778 156.025 314.691 156.127C314.648 156.185 314.561 156.228 314.489 156.228Z"/>
    <path fill="black" d="M314.416 151.307C314.416 151.307 314.315 151.292 314.271 151.263C303.914 143.881 293.963 135.732 284.678 127.047C284.577 126.946 284.577 126.787 284.678 126.686C284.779 126.584 284.939 126.584 285.04 126.686C294.311 135.356 304.248 143.49 314.59 150.872C314.706 150.959 314.735 151.104 314.648 151.22C314.605 151.292 314.518 151.321 314.445 151.321L314.416 151.307Z"/>
    <path fill="black" d="M314.054 146.602C314.054 146.602 313.953 146.588 313.909 146.559C303.712 139.163 293.891 131.042 284.707 122.401C284.606 122.3 284.606 122.141 284.707 122.039C284.809 121.938 284.968 121.938 285.069 122.039C294.238 130.652 304.045 138.772 314.214 146.154C314.329 146.241 314.344 146.385 314.272 146.501C314.228 146.573 314.141 146.602 314.069 146.602H314.054Z"/>
    <path fill="black" d="M314.286 141.696C314.286 141.696 314.184 141.681 314.127 141.638C304.146 133.966 294.253 125.918 284.722 117.697C284.62 117.61 284.606 117.451 284.693 117.35C284.779 117.248 284.939 117.234 285.04 117.321C294.571 125.528 304.45 133.575 314.431 141.247C314.547 141.334 314.561 141.493 314.474 141.594C314.431 141.652 314.344 141.696 314.271 141.696H314.286Z"/>
    <path fill="black" d="M313.938 135.891C313.938 135.891 313.837 135.877 313.779 135.833C309.173 132.273 304.595 128.712 299.757 124.934C294.789 121.055 289.647 117.046 284.301 112.921C284.186 112.834 284.171 112.674 284.258 112.573C284.345 112.457 284.504 112.443 284.606 112.53C289.936 116.655 295.078 120.664 300.061 124.543C304.899 128.321 309.477 131.882 314.083 135.443C314.199 135.53 314.213 135.689 314.127 135.79C314.083 135.848 313.996 135.891 313.924 135.891H313.938Z"/>
    <path fill="black" d="M313.678 131.173C313.678 131.173 313.562 131.158 313.518 131.115C305.537 124.804 295.006 116.525 284.244 108.549C284.128 108.462 284.113 108.303 284.186 108.202C284.273 108.086 284.432 108.071 284.533 108.144C295.296 116.119 305.841 124.399 313.822 130.724C313.924 130.811 313.953 130.97 313.866 131.071C313.822 131.129 313.75 131.173 313.663 131.173H313.678Z"/>
    <path fill="black" d="M300.771 116.452C300.771 116.452 300.67 116.438 300.612 116.394C295.035 112.124 290.183 108.332 285.794 104.815C285.692 104.728 285.663 104.569 285.75 104.467C285.837 104.366 285.996 104.337 286.098 104.424C290.487 107.941 295.339 111.734 300.916 116.003C301.032 116.09 301.047 116.25 300.96 116.351C300.916 116.409 300.829 116.452 300.757 116.452H300.771Z"/>
    <path fill="black" d="M314.083 126.469C314.083 126.469 313.982 126.454 313.938 126.425C313.026 125.759 312.113 125.079 311.201 124.399C311.085 124.312 311.07 124.153 311.143 124.051C311.23 123.936 311.389 123.921 311.49 123.993C312.403 124.674 313.301 125.34 314.228 126.005C314.344 126.092 314.358 126.251 314.286 126.353C314.242 126.425 314.156 126.454 314.083 126.454V126.469Z"/>
    <path fill="white" d="M265.123 49.5227H147.04V130.681H265.123V49.5227Z"/>
    <path fill="black" d="M265.123 131.433H147.04C146.62 131.433 146.286 131.1 146.286 130.681V49.5227C146.286 49.1029 146.62 48.77 147.04 48.77H265.123C265.543 48.77 265.876 49.1029 265.876 49.5227V130.681C265.876 131.1 265.543 131.433 265.123 131.433ZM147.793 129.928H264.37V50.2754H147.793V129.928Z"/>
    <path fill="black" d="M239.151 74.9543H173.012C172.591 74.9543 172.258 74.6214 172.258 74.2016C172.258 73.7819 172.591 73.449 173.012 73.449H239.151C239.571 73.449 239.904 73.7819 239.904 74.2016C239.904 74.6214 239.571 74.9543 239.151 74.9543Z"/>
    <path fill="black" d="M240.6 109.316H174.46C174.04 109.316 173.707 108.983 173.707 108.564C173.707 108.144 174.04 107.811 174.46 107.811H240.6C241.02 107.811 241.353 108.144 241.353 108.564C241.353 108.983 241.02 109.316 240.6 109.316Z"/>
    <path fill="black" d="M211.557 91.9326H161.785C161.365 91.9326 161.032 91.5997 161.032 91.1799C161.032 90.7602 161.365 90.4272 161.785 90.4272H211.557C211.977 90.4272 212.31 90.7602 212.31 91.1799C212.31 91.5997 211.977 91.9326 211.557 91.9326Z"/>
    <path fill="black" d="M224.796 73.8107C224.796 71.5093 226.665 69.6421 228.968 69.6421C231.271 69.6421 233.14 71.5093 233.14 73.8107C233.14 76.1121 231.271 77.9793 228.968 77.9793C226.665 77.9793 224.796 76.1121 224.796 73.8107Z"/>
    <path fill="black" d="M228.982 78.732C226.259 78.732 224.057 76.5174 224.057 73.8107C224.057 71.104 226.274 68.8894 228.982 68.8894C231.691 68.8894 233.907 71.104 233.907 73.8107C233.907 76.5174 231.691 78.732 228.982 78.732ZM228.982 70.3947C227.099 70.3947 225.564 71.929 225.564 73.8107C225.564 75.6924 227.099 77.2266 228.982 77.2266C230.865 77.2266 232.401 75.6924 232.401 73.8107C232.401 71.929 230.865 70.3947 228.982 70.3947Z"/>
    <path fill="white" d="M186.352 96.5211C188.656 96.5211 190.524 94.6547 190.524 92.3525C190.524 90.0502 188.656 88.1838 186.352 88.1838C184.048 88.1838 182.181 90.0502 182.181 92.3525C182.181 94.6547 184.048 96.5211 186.352 96.5211Z"/>
    <path fill="black" d="M186.352 97.2881C183.629 97.2881 181.427 95.0736 181.427 92.3668C181.427 89.6601 183.644 87.4456 186.352 87.4456C189.061 87.4456 191.277 89.6601 191.277 92.3668C191.277 95.0736 189.061 97.2881 186.352 97.2881ZM186.352 88.9364C184.469 88.9364 182.934 90.4707 182.934 92.3524C182.934 94.234 184.469 95.7683 186.352 95.7683C188.236 95.7683 189.771 94.234 189.771 92.3524C189.771 90.4707 188.236 88.9364 186.352 88.9364Z"/>
    <path fill="black" d="M224.796 108.564C224.796 106.262 226.665 104.395 228.968 104.395C231.271 104.395 233.14 106.262 233.14 108.564C233.14 110.865 231.271 112.732 228.968 112.732C226.665 112.732 224.796 110.865 224.796 108.564Z"/>
    <path fill="black" d="M228.982 113.485C226.259 113.485 224.057 111.27 224.057 108.564C224.057 105.857 226.274 103.642 228.982 103.642C231.691 103.642 233.907 105.857 233.907 108.564C233.907 111.27 231.691 113.485 228.982 113.485ZM228.982 105.133C227.099 105.133 225.564 106.667 225.564 108.549C225.564 110.431 227.099 111.965 228.982 111.965C230.865 111.965 232.401 110.431 232.401 108.549C232.401 106.667 230.865 105.133 228.982 105.133Z"/>
    <g opacity="0.13">
      <path fill="black" d="M264.109 131.288C263.79 131.274 263.457 131.288 263.139 131.259C260.777 131.202 258.402 131.187 256.041 131.071C250.58 130.782 245.119 130.927 239.658 130.695C233.299 130.695 226.954 130.912 220.595 131.013C217.032 131.144 213.483 130.927 209.92 130.927C204.922 130.941 199.925 131.115 194.942 131.057C181.79 130.044 168.593 129.971 155.412 130.275C152.79 130.377 150.038 129.537 147.488 130.304C144.954 131.274 145.721 135.24 148.473 135.211C150.574 134.965 152.645 135.414 154.746 135.457C160.308 135.472 165.885 135.457 171.447 135.37C179.153 135.283 186.859 135.891 194.551 136.398C199.693 136.499 204.85 136.311 210.007 136.311C213.787 136.34 217.568 136.543 221.363 136.441C226.998 136.456 232.633 136.253 238.267 136.166C243.294 136.224 248.335 136.123 253.361 136.108C256.244 136.108 259.126 136.108 261.994 135.978C262.791 135.935 263.646 135.964 264.428 135.775C265.224 135.689 265.978 135.168 266.238 134.4C266.934 132.982 265.673 131.158 264.109 131.274V131.288Z"/>
    </g>
  </g>
  <defs>
    <clipPath id="clip0_207_2">
      <rect transform="translate(0 0.107178)" fill="white" height="628" width="530"/>
    </clipPath>
  </defs>
</svg>